<?xml version="1.0" encoding="utf-8"?>
<svg id="master-artboard" viewBox="0 0 1400 980" version="1.1" xmlns="http://www.w3.org/2000/svg" x="0px" y="0px" style="enable-background:new 0 0 1400 980;" width="1400px" height="980px"><g transform="matrix(1.0000000622807717, 0, 0, 1.0000000622807717, 0.000028978876912333362, 0)"><g>
	<g>
		<path class="st0" d="M227.3,329.9h-44.6c-24.9,0-45.1-20.2-45.1-45.1V147.4c0-24.9,20.2-45.1,45.1-45.1h44.6&#10;&#9;&#9;&#9;c24.9,0,45.1,20.2,45.1,45.1v137.4C272.5,309.7,252.3,329.9,227.3,329.9z" style="fill: rgb(242, 242, 242);"/>
	</g>
	<g>
		<path class="st0" d="M1099.8,858.1H888.6c-30.8,0-55.8-25-55.8-55.8v-51c0-30.8,25-55.8,55.8-55.8h211.2c30.8,0,55.8,25,55.8,55.8&#10;&#9;&#9;&#9;v51C1155.6,833.2,1130.6,858.1,1099.8,858.1z" style="fill: rgb(242, 242, 242);"/>
	</g>
	<g>
		<path class="st0" d="M344.9,208.3v179.2c0,19.4-15.7,35.1-35.1,35.1h-57.9c-19.7,0-35.6,16.3-35.1,36&#10;&#9;&#9;&#9;c1.4,53.6,3.3,148.1-1.1,148.1c-4.6,0,125,0,189.2,0c19.4,0,35.1,15.7,35.1,35.1v171.7c0,19.4,15.7,35.1,35.1,35.1h216&#10;&#9;&#9;&#9;c19.4,0,35.1-15.7,35.1-35.1V664.7c0-19.4,15.7-35.1,35.1-35.1h198.8c19.4,0,35.1-15.7,35.1-35.1V493.9&#10;&#9;&#9;&#9;c0-19.4,15.7-35.1,35.1-35.1h124.9c19.4,0,35.1-15.7,35.1-35.1V244.7c0-19.4-15.7-35.1-35.1-35.1H972.6&#10;&#9;&#9;&#9;c-19.4,0-35.1-15.7-35.1-35.1v0c0-19.4-15.7-35.1-35.1-35.1H631.7c-19.4,0-35.1,15.7-35.1,35.1v155.2c0,19.4-15.7,35.1-35.1,35.1&#10;&#9;&#9;&#9;h-37c-19.4,0-35.1-15.7-35.1-35.1V208.3c0-19.4-15.7-35.1-35.1-35.1H380C360.6,173.2,344.9,188.9,344.9,208.3z" style="fill: rgb(242, 242, 242);"/>
	</g>
	<g>
		<g>
			<path class="st1" d="M1022.9,192.8c2.1-16.1,53-28.3,65.7,18.1s-44.3,65.4-65.7,65.4c-18.6-3.7-21.1-11.8-21.1-11.8l3.1-23&#10;&#9;&#9;&#9;&#9;c0,0-22-33,0-47c22-14,26.9,14.7,26.9,14.7" style="fill: rgb(204, 204, 204);"/>
			<path class="st2" d="M1022.9,279.5c-0.2,0-0.4,0-0.6-0.1c-19.9-3.9-23.2-13-23.5-14c-0.1-0.4-0.2-0.9-0.1-1.3l2.9-21.8&#10;&#9;&#9;&#9;&#9;c-2.7-4.3-12.1-20.9-9.1-35.3c1.3-6.4,4.9-11.5,10.7-15.2c6.6-4.2,12.6-5.4,17.9-3.5c3.6-6.9,13.7-12.2,25.6-13&#10;&#9;&#9;&#9;&#9;c6.6-0.4,16.5,0.4,26.1,6.7c9.1,6,15.4,15.5,18.9,28.1c4.1,15.1,1.7,28.8-7.3,40.5C1069.3,270.3,1038.8,279.5,1022.9,279.5z&#10;&#9;&#9;&#9;&#9; M1005.2,264c1,1.6,4.9,6.5,18.1,9.1c12.8-0.1,41.9-7.9,56.1-26.4c7.7-10,9.8-21.8,6.2-34.9c-5.5-20.1-19.8-31.3-38.3-30.1&#10;&#9;&#9;&#9;&#9;c-10.5,0.7-18.6,5.4-20.6,10c6.5,6,8.3,16.4,8.4,16.9c0.3,1.7-0.9,3.4-2.6,3.7c-1.7,0.3-3.4-0.9-3.7-2.6&#10;&#9;&#9;&#9;&#9;c-0.5-3-2.8-10.8-7.5-14.2c0,0,0,0-0.1-0.1c-0.5-0.3-1-0.7-1.6-0.9c-3.4-1.5-7.7-0.6-12.8,2.7c-4.3,2.7-6.8,6.4-7.8,11.1&#10;&#9;&#9;&#9;&#9;c-2.9,13.7,8.7,31.3,8.8,31.5c0.4,0.6,0.6,1.4,0.5,2.2L1005.2,264z" style="fill: rgb(35, 31, 32);"/>
		</g>
		<g>
			<path class="st1" d="M1099.2,492.5c9.2-13.3,60.1-1,50.2,46.1s-69.2,38-88.2,28.3c-14.9-11.7-13.4-20.1-13.4-20.1l13.2-19.1&#10;&#9;&#9;&#9;&#9;c0,0-4.5-39.4,21.4-41.9c26-2.5,17.2,25.3,17.2,25.3" style="fill: rgb(204, 204, 204);"/>
			<path class="st2" d="M1098.3,577.9c-15.3,0-30.1-3.8-38.6-8.2c-0.2-0.1-0.4-0.2-0.5-0.3c-16-12.6-14.7-22.2-14.5-23.2&#10;&#9;&#9;&#9;&#9;c0.1-0.4,0.3-0.9,0.5-1.2l12.5-18.1c-0.4-5.1-1.2-24.1,8-35.5c4.1-5.1,9.6-8,16.4-8.7c7.8-0.7,13.7,0.9,17.5,5&#10;&#9;&#9;&#9;&#9;c6.4-4.5,17.8-4.6,28.7,0.1c6.1,2.6,14.6,7.9,20.2,17.8c5.3,9.5,6.7,20.8,4,33.7c-3.2,15.3-11.6,26.4-24.9,32.7&#10;&#9;&#9;&#9;&#9;C1118.7,576.2,1108.4,577.9,1098.3,577.9z M1062.9,564.2c11.4,5.7,40.9,12.1,61.9,2c11.4-5.4,18.6-14.9,21.4-28.2&#10;&#9;&#9;&#9;&#9;c4.3-20.4-3.4-36.9-20.4-44.3c-9.7-4.2-19-3.6-22.9-0.5c3,8.3-0.1,18.4-0.2,18.9c-0.5,1.7-2.3,2.6-4,2.1c-1.7-0.5-2.6-2.3-2.1-4&#10;&#9;&#9;&#9;&#9;c1-3.2,2.7-12.7-1.3-17.7c-2.3-2.9-6.6-4.1-12.6-3.5c-5,0.5-9,2.5-12,6.3c-8.8,10.9-6.6,31.8-6.5,32c0.1,0.8-0.1,1.6-0.5,2.2&#10;&#9;&#9;&#9;&#9;l-12.7,18.3C1051.1,549.6,1052.4,555.8,1062.9,564.2z" style="fill: rgb(35, 31, 32);"/>
		</g>
		<g>
			<path class="st1" d="M1063,787.4c15.6-4.5,47.1,37.3,9.6,67.4c-37.5,30.1-77.6-14.5-86.2-34.1c-4.1-18.5,2.4-24,2.4-24l22.3-6.4&#10;&#9;&#9;&#9;&#9;c0,0,21.4-33.3,43.1-18.8c21.7,14.5-2.7,30.5-2.7,30.5" style="fill: rgb(204, 204, 204);"/>
			<path class="st2" d="M1045.8,868.2c-3.6,0-7.3-0.5-11.1-1.4c-24.1-5.9-44.7-30.2-51.1-44.8c-0.1-0.2-0.1-0.4-0.2-0.6&#10;&#9;&#9;&#9;&#9;c-4.4-19.8,2.7-26.5,3.5-27.2c0.3-0.3,0.8-0.5,1.2-0.6l21.2-6.1c2.9-4.2,14.3-19.4,28.7-22.4c6.4-1.3,12.5-0.1,18.2,3.7&#10;&#9;&#9;&#9;&#9;c6.5,4.4,10,9.4,10.4,15c7.8,0.6,16.6,7.7,22.1,18.3c3.1,5.9,6.3,15.3,4.3,26.6c-1.9,10.7-8,20.3-18.2,28.6&#10;&#9;&#9;&#9;&#9;C1065.7,864.6,1056,868.2,1045.8,868.2z M989.6,819.8c5.2,11.7,24,35.3,46.6,40.8c12.3,3,23.9,0.2,34.5-8.3&#10;&#9;&#9;&#9;&#9;c16.2-13,20.8-30.7,12.3-47.2c-4.9-9.4-12.4-14.8-17.4-14.9c-3,8.3-11.7,14.2-12.2,14.4c-1.5,1-3.5,0.6-4.4-0.9&#10;&#9;&#9;&#9;&#9;c-1-1.5-0.6-3.5,0.9-4.4c2.6-1.7,8.8-6.9,10-12.6c0,0,0-0.1,0-0.1c0.1-0.6,0.2-1.2,0.2-1.8c0-3.7-2.5-7.3-7.6-10.7&#10;&#9;&#9;&#9;&#9;c-4.2-2.8-8.6-3.7-13.3-2.8c-13.7,2.8-25.2,20.5-25.3,20.6c-0.4,0.7-1.1,1.1-1.8,1.3l-21.4,6.1&#10;&#9;&#9;&#9;&#9;C989.6,801.1,986.7,806.7,989.6,819.8z" style="fill: rgb(35, 31, 32);"/>
		</g>
		<g>
			<g>
				<path class="st3" d="M756.3,535.2c2.3,0,4.7-0.5,6.9-1.7L931.9,447c2.8-1.4,5.1-3.7,6.5-6.5l79.7-153.9&#10;&#9;&#9;&#9;&#9;&#9;c3.8-7.4,0.9-16.5-6.5-20.4c-7.4-3.8-16.5-0.9-20.4,6.5l-77.5,149.6l-164.3,84.4c-7.4,3.8-10.4,12.9-6.5,20.4&#10;&#9;&#9;&#9;&#9;&#9;C745.6,532.2,750.9,535.2,756.3,535.2z" style="fill: rgb(153, 153, 153);"/>
				<path class="st2" d="M756.3,538.4c-6.9,0-13.2-3.8-16.3-10c-4.6-9-1.1-20.1,7.9-24.7l163.4-83.9l77-148.7&#10;&#9;&#9;&#9;&#9;&#9;c2.3-4.3,6.1-7.6,10.7-9c4.7-1.5,9.6-1.1,14,1.2c4.3,2.3,7.6,6.1,9,10.7c1.5,4.7,1.1,9.6-1.2,14l-79.7,153.9&#10;&#9;&#9;&#9;&#9;&#9;c-1.8,3.4-4.5,6.1-7.9,7.9l-168.6,86.6C762.1,537.7,759.2,538.4,756.3,538.4z M1004.7,267.7c-1.2,0-2.4,0.2-3.6,0.6&#10;&#9;&#9;&#9;&#9;&#9;c-3,1-5.5,3-7,5.9l-77.5,149.6c-0.3,0.6-0.8,1.1-1.4,1.4l-164.3,84.4c-5.8,3-8.2,10.2-5.2,16c2,4,6.1,6.5,10.6,6.5&#10;&#9;&#9;&#9;&#9;&#9;c1.9,0,3.7-0.4,5.4-1.3l168.6-86.6c2.2-1.1,4-2.9,5.1-5.1l79.7-153.9c1.5-2.8,1.7-6.1,0.8-9.1c-1-3-3.1-5.5-5.9-7&#10;&#9;&#9;&#9;&#9;&#9;C1008.4,268.1,1006.6,267.7,1004.7,267.7z" style="fill: rgb(35, 31, 32);"/>
			</g>
		</g>
		<g>
			<g>
				<path class="st4" d="M872.6,599.9c0.8,0,1.7-0.1,2.5-0.2l172.6-30.9c8.2-1.5,13.7-9.3,12.2-17.5c-1.5-8.2-9.3-13.7-17.5-12.2&#10;&#9;&#9;&#9;&#9;&#9;L873,569.3l-108.2-49.5c-8.1-2.1-16.3,2.8-18.4,10.8c-2.1,8.1,2.8,16.3,10.8,18.4l111.4,50.3&#10;&#9;&#9;&#9;&#9;&#9;C869.9,599.8,871.2,599.9,872.6,599.9z" style="fill: rgb(102, 102, 102);"/>
				<path class="st2" d="M872.4,603.1c-1.5,0-3.1-0.2-4.6-0.6c-0.2,0-0.3-0.1-0.5-0.2l-111.2-50.2c-4.6-1.3-8.5-4.2-10.9-8.4&#10;&#9;&#9;&#9;&#9;&#9;c-2.5-4.2-3.2-9.2-2-13.9c1.2-4.7,4.2-8.7,8.4-11.2c4.2-2.5,9.1-3.2,13.9-1.9c0.2,0,0.4,0.1,0.5,0.2L873.4,566l168.3-30.2&#10;&#9;&#9;&#9;&#9;&#9;c4.8-0.9,9.7,0.2,13.7,3c4,2.8,6.7,7,7.6,11.8c0.9,4.8-0.2,9.7-3,13.7c-2.8,4-7,6.7-11.8,7.6l-172.6,30.9c-1,0.2-2,0.3-3,0.3&#10;&#9;&#9;&#9;&#9;&#9;C872.5,603.1,872.5,603.1,872.4,603.1z M869.7,596.4c0.9,0.2,1.9,0.3,2.9,0.3c0,0,0,0,0,0c0.7,0,1.3-0.1,2-0.2l172.6-30.9&#10;&#9;&#9;&#9;&#9;&#9;c3.1-0.6,5.9-2.3,7.7-4.9c1.8-2.6,2.5-5.8,1.9-8.9c-0.6-3.1-2.3-5.9-4.9-7.7c-2.6-1.8-5.8-2.5-8.9-1.9l-169.3,30.4&#10;&#9;&#9;&#9;&#9;&#9;c-0.6,0.1-1.3,0-1.9-0.2l-108-49.3c-3-0.7-6.1-0.2-8.8,1.3c-2.7,1.6-4.7,4.2-5.5,7.3s-0.3,6.3,1.3,9c1.6,2.7,4.2,4.7,7.3,5.5&#10;&#9;&#9;&#9;&#9;&#9;c0.2,0,0.3,0.1,0.5,0.2L869.7,596.4z" style="fill: rgb(35, 31, 32);"/>
			</g>
		</g>
		<g>
			<g>
				<path class="st4" d="M981.2,808.8c5.7,0.7,11.4-1.9,14.6-7.1c4.4-7.1,2.2-16.4-4.9-20.8l-117-72.1l-89-170.2&#10;&#9;&#9;&#9;&#9;&#9;c-3.9-7.4-13-10.3-20.4-6.4c-7.4,3.9-10.3,13-6.4,20.4L849,726.5c1.3,2.4,3.2,4.4,5.5,5.9L975,806.6&#10;&#9;&#9;&#9;&#9;&#9;C977,807.8,979.1,808.5,981.2,808.8z" style="fill: rgb(102, 102, 102);"/>
				<path class="st2" d="M982.9,812.1c-0.7,0-1.4,0-2.1-0.1c-2.7-0.3-5.2-1.2-7.5-2.6l-120.6-74.3c-2.8-1.7-5.1-4.2-6.6-7.1&#10;&#9;&#9;&#9;&#9;&#9;l-90.9-173.9c-2.3-4.3-2.7-9.3-1.2-14s4.7-8.5,9-10.8c4.3-2.3,9.3-2.7,14-1.2c4.7,1.5,8.5,4.7,10.8,9l88.6,169.4l116.3,71.6&#10;&#9;&#9;&#9;&#9;&#9;c4.2,2.6,7.1,6.6,8.2,11.4c1.1,4.8,0.3,9.7-2.2,13.8C995.2,808.8,989.2,812.1,982.9,812.1z M771.4,533.7c-1.9,0-3.8,0.5-5.5,1.4&#10;&#9;&#9;&#9;&#9;&#9;c-5.8,3-8.1,10.3-5,16.1L851.8,725c1,1.9,2.5,3.5,4.3,4.6l120.6,74.3c1.5,0.9,3.1,1.5,4.9,1.7l0,0c4.6,0.5,9.1-1.7,11.5-5.6&#10;&#9;&#9;&#9;&#9;&#9;c1.7-2.7,2.2-5.9,1.4-9c-0.7-3.1-2.6-5.7-5.3-7.4l-117-72.1c-0.5-0.3-0.9-0.7-1.2-1.2l-89-170.2c-1.5-2.8-4-4.9-7-5.8&#10;&#9;&#9;&#9;&#9;&#9;C773.8,533.9,772.6,533.7,771.4,533.7z" style="fill: rgb(35, 31, 32);"/>
			</g>
		</g>
		<g>
			<path class="st5" d="M971.6,277.2l18.9,12.5l11-17.1v22l26.9,28.1l16.2-29.6c0,0-18.3-37.9-59.2-43.4&#10;&#9;&#9;&#9;&#9;C976.5,266.2,971.6,277.2,971.6,277.2z" style="fill: rgb(128, 128, 128);"/>
			<path class="st2" d="M1028.4,325.9c-0.9,0-1.7-0.4-2.3-1l-26.9-28.1c-0.6-0.6-0.9-1.4-0.9-2.2v-11.1l-5.1,7.9&#10;&#9;&#9;&#9;&#9;c-0.5,0.7-1.2,1.2-2,1.4c-0.8,0.2-1.7,0-2.4-0.5l-18.9-12.5c-1.3-0.9-1.8-2.5-1.2-4c0-0.1,5-11.3,13.8-27.7&#10;&#9;&#9;&#9;&#9;c0.6-1.2,1.9-1.8,3.3-1.7c42.1,5.7,60.9,43.5,61.7,45.1c0.5,0.9,0.4,2-0.1,2.9l-16.2,29.6c-0.5,0.9-1.4,1.5-2.4,1.6&#10;&#9;&#9;&#9;&#9;C1028.7,325.9,1028.6,325.9,1028.4,325.9z M1004.8,293.3l23,24l13.3-24.3c-3.7-6.6-21-34.3-53.8-39.8&#10;&#9;&#9;&#9;&#9;c-5.7,10.7-9.6,18.9-11.4,22.8l13.9,9.2l9.2-14.4c0.8-1.2,2.2-1.7,3.6-1.3c1.4,0.4,2.3,1.7,2.3,3.1V293.3z" style="fill: rgb(35, 31, 32);"/>
		</g>
		<g>
			<path class="st5" d="M1030.4,525.9l5.3,22.1l19.7-5l-15,16.1l0.5,38.9l32-10.7c0,0,12.4-40.2-13.8-72.1&#10;&#9;&#9;&#9;&#9;C1041.4,521.2,1030.4,525.9,1030.4,525.9z" style="fill: rgb(128, 128, 128);"/>
			<path class="st2" d="M1041,601.2c-0.7,0-1.3-0.2-1.9-0.6c-0.8-0.6-1.3-1.5-1.3-2.6l-0.5-38.9c0-0.8,0.3-1.6,0.9-2.2l7.5-8.1&#10;&#9;&#9;&#9;&#9;l-9.1,2.3c-0.8,0.2-1.7,0.1-2.4-0.4c-0.7-0.4-1.3-1.2-1.5-2l-5.3-22.1c-0.4-1.5,0.4-3.1,1.9-3.7c0.1,0,11.4-4.8,29-10.9&#10;&#9;&#9;&#9;&#9;c1.3-0.4,2.7,0,3.5,1c27,32.8,15,73.4,14.4,75.1c-0.3,1-1.1,1.8-2.1,2.1l-32,10.7C1041.6,601.1,1041.3,601.2,1041,601.2z&#10;&#9;&#9;&#9;&#9; M1043.6,560.3l0.5,33.2l26.2-8.7c1.8-7.4,8-39.5-12.3-65.8c-11.5,4-20,7.3-23.9,8.9l3.9,16.2l16.6-4.2c1.4-0.4,2.8,0.2,3.6,1.5&#10;&#9;&#9;&#9;&#9;c0.7,1.2,0.6,2.8-0.4,3.8L1043.6,560.3z" style="fill: rgb(35, 31, 32);"/>
		</g>
		<g>
			<path class="st5" d="M987,763.1l-9.6,20.6L996,792l-21.7,3.3L950.4,826l31.7,11.6c0,0,34.7-23.7,34.1-65&#10;&#9;&#9;&#9;&#9;C998.6,766.3,987,763.1,987,763.1z" style="fill: rgb(128, 128, 128);"/>
			<path class="st2" d="M982.1,840.8c-0.4,0-0.7-0.1-1.1-0.2L949.3,829c-1-0.4-1.7-1.1-2-2.1c-0.3-1-0.1-2,0.5-2.9l23.8-30.7&#10;&#9;&#9;&#9;&#9;c0.5-0.7,1.2-1.1,2.1-1.2l10.9-1.6l-8.6-3.9c-0.8-0.4-1.4-1-1.7-1.8c-0.3-0.8-0.3-1.7,0.1-2.5l9.6-20.6c0.7-1.4,2.3-2.2,3.8-1.7&#10;&#9;&#9;&#9;&#9;c0.1,0,11.9,3.3,29.4,9.6c1.3,0.5,2.1,1.6,2.1,3c0.7,42.5-34,66.7-35.5,67.7C983.4,840.6,982.8,840.8,982.1,840.8z M955.6,824.5&#10;&#9;&#9;&#9;&#9;l26,9.5c6-4.6,30.8-25.9,31.4-59.2c-11.5-4.1-20.2-6.7-24.3-7.9l-7,15.1l15.6,7c1.3,0.6,2.1,2,1.9,3.4c-0.2,1.4-1.3,2.5-2.7,2.7&#10;&#9;&#9;&#9;&#9;l-20.5,3.1L955.6,824.5z" style="fill: rgb(35, 31, 32);"/>
		</g>
		<g>
			<path class="st6" d="M224.1,722.2l-44.9,28.5l-6.8-10.6c-4.6-7.2-2.5-16.8,4.8-21.4l18.7-11.9c7.2-4.6,16.8-2.5,21.4,4.8&#10;&#9;&#9;&#9;&#9;L224.1,722.2z" style="fill: rgb(255, 218, 117);"/>
			<path class="st2" d="M179.2,753.9c-0.2,0-0.5,0-0.7-0.1c-0.8-0.2-1.6-0.7-2-1.4l-7.5-11.7c-5.1-8.1-2.7-18.9,5.4-24l20.9-13.2&#10;&#9;&#9;&#9;&#9;c3.9-2.5,8.6-3.3,13.1-2.3c4.5,1,8.4,3.7,10.9,7.7l7.5,11.7c0.9,1.5,0.5,3.5-1,4.4l-44.9,28.5&#10;&#9;&#9;&#9;&#9;C180.4,753.7,179.8,753.9,179.2,753.9z M204.6,707.1c-2.1,0-4.1,0.6-5.9,1.7L177.8,722c-5.1,3.3-6.6,10.1-3.4,15.2l5.7,9l39.4-25&#10;&#9;&#9;&#9;&#9;l-5.7-9c-1.6-2.5-4-4.2-6.9-4.8C206.2,707.2,205.4,707.1,204.6,707.1z" style="fill: rgb(35, 31, 32);"/>
		</g>
		<g>
			<path class="st1" d="M379.2,192.8c-2.1-16.1-53-28.3-65.7,18.1c-12.6,46.4,44.3,65.4,65.7,65.4c18.6-3.7,21.1-11.8,21.1-11.8&#10;&#9;&#9;&#9;&#9;l-3.1-23c0,0,22-33,0-47s-26.9,14.7-26.9,14.7" style="fill: rgb(204, 204, 204);"/>
			<path class="st2" d="M379.2,279.5c-15.9,0-46.4-9.2-61.5-28.9c-9-11.7-11.4-25.3-7.3-40.5c3.4-12.6,9.8-22.1,18.9-28.1&#10;&#9;&#9;&#9;&#9;c9.5-6.3,19.4-7.1,26.1-6.7c11.9,0.8,22,6.1,25.6,13c5.3-1.9,11.3-0.7,17.9,3.5c5.7,3.7,9.3,8.8,10.7,15.2&#10;&#9;&#9;&#9;&#9;c3,14.4-6.4,31-9.1,35.3l2.9,21.8c0.1,0.5,0,0.9-0.1,1.3c-0.3,1-3.6,10.1-23.5,14C379.6,279.5,379.4,279.5,379.2,279.5z&#10;&#9;&#9;&#9;&#9; M352.2,181.6c-17.2,0-30.4,11.1-35.6,30.2c-3.6,13.1-1.5,24.8,6.2,34.9c14.1,18.5,43.3,26.3,56.1,26.4&#10;&#9;&#9;&#9;&#9;c13.1-2.7,17.1-7.6,18.1-9.1l-2.9-22.1c-0.1-0.8,0.1-1.6,0.5-2.2c0.1-0.2,11.7-17.8,8.8-31.5c-1-4.7-3.6-8.3-7.8-11.1&#10;&#9;&#9;&#9;&#9;c-5.1-3.3-9.4-4.2-12.8-2.6c-0.5,0.2-1,0.5-1.5,0.9c-0.1,0-0.1,0.1-0.2,0.1c-4.7,3.4-7,11.2-7.5,14.2c-0.3,1.7-2,2.9-3.7,2.6&#10;&#9;&#9;&#9;&#9;c-1.7-0.3-2.9-2-2.6-3.7c0.1-0.5,1.9-10.9,8.4-16.9c-2-4.5-10-9.3-20.6-10C354,181.6,353.1,181.6,352.2,181.6z" style="fill: rgb(35, 31, 32);"/>
		</g>
		<g>
			<path class="st1" d="M302.9,492.5c-9.2-13.3-60.1-1-50.2,46.1c9.9,47.1,69.2,38,88.2,28.3c14.9-11.7,13.4-20.1,13.4-20.1&#10;&#9;&#9;&#9;&#9;l-13.2-19.1c0,0,4.5-39.4-21.4-41.9c-26-2.5-17.2,25.3-17.2,25.3" style="fill: rgb(204, 204, 204);"/>
			<path class="st2" d="M303.9,577.9c-10.1,0-20.4-1.7-29.3-5.9c-13.3-6.4-21.7-17.4-24.9-32.7c-2.7-12.8-1.4-24.2,4-33.7&#10;&#9;&#9;&#9;&#9;c5.6-10,14.1-15.2,20.2-17.8c11-4.7,22.4-4.6,28.7-0.1c3.8-4.1,9.7-5.8,17.5-5c6.8,0.6,12.3,3.6,16.4,8.7&#10;&#9;&#9;&#9;&#9;c9.3,11.4,8.4,30.5,8,35.5l12.5,18.1c0.3,0.4,0.4,0.8,0.5,1.2c0.2,1.1,1.4,10.6-14.5,23.2c-0.2,0.1-0.3,0.2-0.5,0.3&#10;&#9;&#9;&#9;&#9;C333.9,574.1,319.1,577.9,303.9,577.9z M289.9,490.7c-4,0-8.7,0.9-13.6,3c-17.1,7.3-24.7,23.9-20.4,44.3&#10;&#9;&#9;&#9;&#9;c2.8,13.3,10,22.8,21.4,28.2c21,10,50.5,3.7,61.9-2c10.5-8.4,11.8-14.5,11.9-16.4l-12.7-18.3c-0.4-0.6-0.6-1.4-0.5-2.2&#10;&#9;&#9;&#9;&#9;c0-0.2,2.3-21.1-6.5-32c-3-3.7-7-5.8-12-6.3c-6-0.6-10.3,0.6-12.6,3.5c-0.4,0.4-0.7,0.9-0.9,1.4c0,0.1-0.1,0.1-0.1,0.2&#10;&#9;&#9;&#9;&#9;c-2.6,5.2-1.1,13.1-0.2,16c0.5,1.7-0.4,3.5-2.1,4c-1.7,0.5-3.5-0.4-4-2.1c-0.2-0.5-3.2-10.6-0.2-18.9&#10;&#9;&#9;&#9;&#9;C297.2,491.6,293.9,490.7,289.9,490.7z" style="fill: rgb(35, 31, 32);"/>
		</g>
		<g>
			<path class="st1" d="M339.1,787.4c-15.6-4.5-47.1,37.3-9.6,67.4c37.5,30.1,77.6-14.5,86.2-34.1c4.1-18.5-2.4-24-2.4-24l-22.3-6.4&#10;&#9;&#9;&#9;&#9;c0,0-21.4-33.3-43.1-18.8c-21.7,14.5,2.7,30.5,2.7,30.5" style="fill: rgb(204, 204, 204);"/>
			<path class="st2" d="M356.4,868.2c-10.2,0-19.9-3.6-28.9-10.9c-10.2-8.2-16.4-17.8-18.2-28.6c-2-11.3,1.2-20.7,4.3-26.6&#10;&#9;&#9;&#9;&#9;c5.5-10.6,14.4-17.7,22.1-18.3c0.4-5.6,3.8-10.6,10.4-15c5.6-3.8,11.8-5,18.2-3.7c14.4,3,25.8,18.2,28.7,22.4l21.2,6.1&#10;&#9;&#9;&#9;&#9;c0.4,0.1,0.8,0.3,1.2,0.6c0.8,0.7,7.8,7.3,3.5,27.2c0,0.2-0.1,0.4-0.2,0.6c-6.3,14.6-27,38.8-51.1,44.8&#10;&#9;&#9;&#9;&#9;C363.7,867.8,360,868.2,356.4,868.2z M336.6,790.3c-5,0.1-12.5,5.5-17.4,14.9c-8.5,16.5-4,34.1,12.3,47.2&#10;&#9;&#9;&#9;&#9;c10.6,8.5,22.2,11.3,34.5,8.3c22.6-5.6,41.4-29.2,46.6-40.8c2.8-13.1-0.1-18.7-1.1-20.2l-21.4-6.1c-0.7-0.2-1.4-0.7-1.8-1.3&#10;&#9;&#9;&#9;&#9;c-0.1-0.2-11.6-17.8-25.3-20.6c-4.7-1-9.1-0.1-13.3,2.8c-5,3.4-7.6,7-7.6,10.7c0,0.6,0.1,1.2,0.2,1.7c0,0.1,0,0.1,0,0.2&#10;&#9;&#9;&#9;&#9;c1.3,5.7,7.5,10.9,10,12.5c1.5,1,1.9,3,0.9,4.4c-1,1.5-3,1.9-4.4,0.9C348.3,804.4,339.5,798.6,336.6,790.3z" style="fill: rgb(35, 31, 32);"/>
		</g>
		<g>
			<g>
				<path class="st3" d="M645.8,535.2c-2.3,0-4.7-0.5-6.9-1.7L470.2,447c-2.8-1.4-5.1-3.7-6.5-6.5L384,286.6&#10;&#9;&#9;&#9;&#9;&#9;c-3.8-7.4-0.9-16.5,6.5-20.4c7.4-3.8,16.5-0.9,20.4,6.5l77.5,149.6l164.3,84.4c7.4,3.8,10.4,12.9,6.5,20.4&#10;&#9;&#9;&#9;&#9;&#9;C656.5,532.2,651.3,535.2,645.8,535.2z" style="fill: rgb(153, 153, 153);"/>
				<path class="st2" d="M645.8,538.4c-2.9,0-5.8-0.7-8.4-2l-168.6-86.6c-3.4-1.8-6.1-4.5-7.9-7.9L381.2,288&#10;&#9;&#9;&#9;&#9;&#9;c-2.3-4.3-2.7-9.3-1.2-14c1.5-4.7,4.7-8.5,9-10.7c4.3-2.3,9.3-2.7,14-1.2c4.7,1.5,8.5,4.7,10.7,9l77,148.7l163.4,83.9&#10;&#9;&#9;&#9;&#9;&#9;c9,4.6,12.5,15.7,7.9,24.7C658.9,534.6,652.7,538.4,645.8,538.4z M397.4,267.7c-1.9,0-3.7,0.5-5.5,1.3c-2.8,1.5-4.9,3.9-5.9,7&#10;&#9;&#9;&#9;&#9;&#9;c-1,3-0.7,6.3,0.8,9.1L466.6,439c1.1,2.2,2.9,4,5.1,5.1l168.6,86.6c1.7,0.9,3.5,1.3,5.4,1.3c4.5,0,8.6-2.5,10.6-6.5&#10;&#9;&#9;&#9;&#9;&#9;c3-5.8,0.7-13-5.2-16l-164.3-84.4c-0.6-0.3-1.1-0.8-1.4-1.4L408,274.1c-1.5-2.8-3.9-4.9-7-5.9&#10;&#9;&#9;&#9;&#9;&#9;C399.9,267.9,398.6,267.7,397.4,267.7z" style="fill: rgb(35, 31, 32);"/>
			</g>
		</g>
		<g>
			<g>
				<path class="st4" d="M529.5,599.9c-0.8,0-1.7-0.1-2.5-0.2l-172.6-30.9c-8.2-1.5-13.7-9.3-12.2-17.5c1.5-8.2,9.3-13.7,17.5-12.2&#10;&#9;&#9;&#9;&#9;&#9;l169.3,30.4l108.2-49.5c8.1-2.1,16.3,2.8,18.4,10.8c2.1,8.1-2.8,16.3-10.8,18.4l-111.4,50.3&#10;&#9;&#9;&#9;&#9;&#9;C532.2,599.8,530.9,599.9,529.5,599.9z" style="fill: rgb(102, 102, 102);"/>
				<path class="st2" d="M529.7,603.1c-0.1,0-0.2,0-0.2,0l0,0c-1,0-2-0.1-3-0.3l-172.6-30.9c-9.9-1.8-16.6-11.3-14.8-21.3&#10;&#9;&#9;&#9;&#9;&#9;c0.9-4.8,3.6-9,7.6-11.8c4-2.8,8.9-3.9,13.7-3L528.7,566L636,517c0.2-0.1,0.3-0.1,0.5-0.2c4.7-1.2,9.7-0.5,13.9,1.9&#10;&#9;&#9;&#9;&#9;&#9;c4.2,2.5,7.2,6.5,8.4,11.2c1.2,4.7,0.5,9.7-2,13.9c-2.4,4.1-6.3,7.1-10.9,8.4l-111.2,50.2c-0.2,0.1-0.3,0.1-0.5,0.2&#10;&#9;&#9;&#9;&#9;&#9;C532.8,602.9,531.3,603.1,529.7,603.1z M357.1,541.9c-2.4,0-4.8,0.7-6.8,2.1c-2.6,1.8-4.4,4.5-4.9,7.7c-0.6,3.1,0.1,6.3,1.9,8.9&#10;&#9;&#9;&#9;&#9;&#9;c1.8,2.6,4.5,4.4,7.7,4.9l172.6,30.9c0.6,0.1,1.3,0.2,2,0.2c0.1,0,0.1,0,0.2,0c0.9,0,1.8-0.1,2.7-0.3l111.2-50.2&#10;&#9;&#9;&#9;&#9;&#9;c0.2-0.1,0.3-0.1,0.5-0.2c3.1-0.8,5.7-2.7,7.3-5.5c1.6-2.7,2.1-5.9,1.3-9c-0.8-3.1-2.7-5.7-5.5-7.3c-2.7-1.6-5.8-2-8.8-1.3&#10;&#9;&#9;&#9;&#9;&#9;l-108,49.3c-0.6,0.3-1.3,0.4-1.9,0.2l-169.3-30.4C358.5,542,357.8,541.9,357.1,541.9z" style="fill: rgb(35, 31, 32);"/>
			</g>
		</g>
		<g>
			<g>
				<path class="st4" d="M420.9,808.8c-5.7,0.7-11.4-1.9-14.6-7.1c-4.4-7.1-2.2-16.4,4.9-20.8l117-72.1l89-170.2&#10;&#9;&#9;&#9;&#9;&#9;c3.9-7.4,13-10.3,20.4-6.4c7.4,3.9,10.3,13,6.4,20.4l-90.9,173.9c-1.3,2.4-3.2,4.4-5.5,5.9l-120.6,74.3&#10;&#9;&#9;&#9;&#9;&#9;C425.1,807.8,423,808.5,420.9,808.8z" style="fill: rgb(102, 102, 102);"/>
				<path class="st2" d="M419.2,812.1c-6.3,0-12.3-3.3-15.6-8.7c-5.3-8.6-2.6-19.9,6-25.2l116.3-71.6l88.6-169.4&#10;&#9;&#9;&#9;&#9;&#9;c2.3-4.3,6.1-7.5,10.8-9c4.7-1.5,9.6-1,14,1.2c9,4.7,12.4,15.8,7.7,24.7L556,728c-1.5,2.9-3.8,5.4-6.6,7.1l-120.6,74.3&#10;&#9;&#9;&#9;&#9;&#9;c-2.3,1.4-4.8,2.3-7.5,2.6C420.6,812,419.9,812.1,419.2,812.1z M630.7,533.7c-1.2,0-2.4,0.2-3.6,0.6c-3,1-5.5,3-7,5.8l-89,170.2&#10;&#9;&#9;&#9;&#9;&#9;c-0.3,0.5-0.7,0.9-1.2,1.2l-117,72.1c-5.6,3.4-7.3,10.8-3.9,16.4c2.4,3.9,6.9,6.1,11.5,5.6h0c1.7-0.2,3.4-0.8,4.9-1.7L546,729.6&#10;&#9;&#9;&#9;&#9;&#9;c1.8-1.1,3.3-2.7,4.3-4.6l90.9-173.9c3-5.8,0.8-13-5-16.1C634.5,534.1,632.6,533.7,630.7,533.7z" style="fill: rgb(35, 31, 32);"/>
			</g>
		</g>
		<g>
			<path class="st4" d="M660.8,473.9h80.5c2.1,0,3.3,2.5,2,4.1l-13.9,17.8c-0.5,0.6-1.2,1-2,1h-52.8c-0.8,0-1.5-0.4-2-1l-13.9-17.8&#10;&#9;&#9;&#9;&#9;C657.5,476.4,658.7,473.9,660.8,473.9z" style="fill: rgb(102, 102, 102);"/>
			<path class="st2" d="M727.4,500h-52.8c-1.8,0-3.4-0.8-4.5-2.2L656.3,480c-1.4-1.8-1.6-4.1-0.6-6.1c1-2,3-3.2,5.2-3.2h80.5&#10;&#9;&#9;&#9;&#9;c2.2,0,4.2,1.2,5.2,3.2c1,2,0.7,4.3-0.6,6.1L732,497.8C730.9,499.2,729.2,500,727.4,500z M675,493.6h52.1l12.9-16.5h-77.9&#10;&#9;&#9;&#9;&#9;L675,493.6z M741.3,477.1L741.3,477.1L741.3,477.1z" style="fill: rgb(35, 31, 32);"/>
		</g>
		<g>
			<path class="st7" d="M801.5,281.8c0,46.7-27.4,88.7-53.6,118.2c-26.7,30.1-66.8,30.1-93.5,0c-26.2-29.5-53.6-71.5-53.6-118.2&#10;&#9;&#9;&#9;&#9;c0-89.2,45-95.7,100.4-95.7S801.5,192.5,801.5,281.8z" style="fill: rgb(254, 225, 204);"/>
			<path class="st2" d="M701.1,425.7c-18.2,0-35.6-8.4-49.2-23.6c-24.8-28-54.4-71.5-54.4-120.3c0-91.5,46.9-98.9,103.6-98.9&#10;&#9;&#9;&#9;&#9;c56.7,0,103.6,7.4,103.6,98.9c0,48.8-29.6,92.3-54.4,120.3C736.7,417.3,719.2,425.7,701.1,425.7z M701.1,189.3&#10;&#9;&#9;&#9;&#9;c-25.1,0-51,1.1-69.1,13.8c-19.1,13.4-28,38.5-28,78.7c0,25.8,9.2,66.9,52.8,116.1c12.3,13.9,28.1,21.5,44.4,21.5&#10;&#9;&#9;&#9;&#9;c16.3,0,32.1-7.6,44.4-21.5c24.1-27.1,52.8-69.3,52.8-116.1c0-40.2-8.9-65.2-28-78.7C752.1,190.3,726.1,189.3,701.1,189.3z" style="fill: rgb(35, 31, 32);"/>
		</g>
		<g>
			<path class="st8" d="M701.1,167.7c-127.3,0-172.2,141.1-90.7,207.1c-36.6-51.3,90.7-137.4,90.7-148.4c0,11,127.3,97.1,90.7,148.4&#10;&#9;&#9;&#9;&#9;C873.3,308.8,828.4,167.7,701.1,167.7z" style="fill: rgb(246, 150, 82);"/>
			<path class="st2" d="M791.8,378c-0.8,0-1.6-0.3-2.2-0.9c-1.2-1.1-1.3-2.9-0.4-4.2c25.3-35.4-36-91.6-68.9-121.7&#10;&#9;&#9;&#9;&#9;c-9.9-9-15.9-14.6-19.2-18.6c-3.3,3.9-9.3,9.5-19.2,18.6c-32.9,30.2-94.2,86.3-68.9,121.7c0.9,1.3,0.8,3.1-0.4,4.2&#10;&#9;&#9;&#9;&#9;c-1.2,1.1-3,1.2-4.2,0.2c-19.4-15.7-32.8-36.5-38.8-60.1c-5.6-22.3-4.4-45.9,3.5-68.2c14.4-40.8,55.7-84.4,128-84.4&#10;&#9;&#9;&#9;&#9;c72.4,0,113.6,43.6,128,84.4c7.9,22.3,9.1,45.9,3.5,68.2c-5.9,23.6-19.4,44.4-38.8,60.1C793.2,377.8,792.5,378,791.8,378z&#10;&#9;&#9;&#9;&#9; M704.3,226.1c1,2.6,10.8,11.7,20.3,20.4c17.6,16.1,41.6,38.1,58.2,61.2c15.1,21,21.1,39.2,18,54.4c12.4-13.2,21.2-29,25.6-46.5&#10;&#9;&#9;&#9;&#9;c5.3-21.1,4.2-43.4-3.3-64.5c-13.7-38.8-53-80.2-122-80.2c-69,0-108.3,41.4-122,80.2c-7.5,21.2-8.6,43.5-3.3,64.5&#10;&#9;&#9;&#9;&#9;c4.4,17.5,13.1,33.3,25.6,46.5c-3.1-15.2,2.9-33.4,18-54.4c16.6-23.1,40.6-45.1,58.2-61.2c9.5-8.7,19.3-17.7,20.3-20.4&#10;&#9;&#9;&#9;&#9;c0.1-1.7,1.5-3,3.2-3S704.1,224.5,704.3,226.1z M704.3,226.4C704.3,226.4,704.3,226.4,704.3,226.4&#10;&#9;&#9;&#9;&#9;C704.3,226.4,704.3,226.4,704.3,226.4z M697.8,226.4C697.8,226.4,697.8,226.4,697.8,226.4C697.8,226.4,697.8,226.4,697.8,226.4z" style="fill: rgb(35, 31, 32);"/>
		</g>
		<g>
			<path class="st5" d="M801.5,554.4c-17.6-54.4-72-73.3-100.4-73.3s-82.8,18.9-100.4,73.3c-21.4,66,50.2,143.1,50.2,143.1h50.2&#10;&#9;&#9;&#9;&#9;h50.2C751.3,697.5,822.9,620.4,801.5,554.4z" style="fill: rgb(128, 128, 128);"/>
			<path class="st2" d="M751.3,700.7H650.9c-0.9,0-1.7-0.4-2.3-1c-0.7-0.8-18.3-19.9-33.6-47.4c-20.4-36.8-26.4-71-17.3-98.9&#10;&#9;&#9;&#9;&#9;c17.8-55,72.9-75.5,103.4-75.5c30.5,0,85.6,20.5,103.4,75.5c9,27.9,3.1,62-17.3,98.9c-15.2,27.6-32.8,46.6-33.6,47.4&#10;&#9;&#9;&#9;&#9;C753,700.3,752.1,700.7,751.3,700.7z M652.3,694.3h97.5c3.8-4.3,18.9-21.9,31.8-45.3c13.5-24.5,27.5-60.7,16.8-93.7&#10;&#9;&#9;&#9;&#9;c-16.8-51.8-68.6-71.1-97.3-71.1c-28.7,0-80.5,19.3-97.3,71.1c-10.7,33,3.2,69.1,16.8,93.7C633.4,672.4,648.4,690,652.3,694.3z" style="fill: rgb(35, 31, 32);"/>
		</g>
		<g>
			<path class="st7" d="M701.1,504.4l-20.8,33.3l-30.6-45.2c-2.4-3.6-2.7-8.1-0.8-12v0c3.4-6.8,12.3-8.7,18.2-3.9L701.1,504.4z" style="fill: rgb(254, 225, 204);"/>
			<path class="st2" d="M680.3,540.9c-1.1,0-2.1-0.5-2.7-1.4L647,494.3c-3.1-4.5-3.4-10.3-1-15.2c2.1-4.1,5.8-7.1,10.4-8&#10;&#9;&#9;&#9;&#9;c4.5-1,9.2,0.2,12.7,3.1l34,27.8c1.2,1,1.5,2.8,0.7,4.2L683,539.4C682.4,540.3,681.4,540.9,680.3,540.9&#10;&#9;&#9;&#9;&#9;C680.3,540.9,680.3,540.9,680.3,540.9z M659.6,477.1c-0.6,0-1.2,0.1-1.8,0.2c-2.6,0.6-4.8,2.2-6,4.6c-1.4,2.8-1.2,6.2,0.6,8.8&#10;&#9;&#9;&#9;&#9;l27.8,41.1l16.7-26.7l-31.8-26C663.5,477.8,661.5,477.1,659.6,477.1z" style="fill: rgb(35, 31, 32);"/>
		</g>
		<g>
			<path class="st7" d="M701.1,504.4l20.8,33.3l30.6-45.2c2.4-3.6,2.7-8.1,0.8-12v0c-3.4-6.8-12.3-8.7-18.2-3.9L701.1,504.4z" style="fill: rgb(254, 225, 204);"/>
			<path class="st2" d="M721.8,540.9C721.8,540.9,721.8,540.9,721.8,540.9c-1.1,0-2.1-0.6-2.7-1.5l-20.8-33.3&#10;&#9;&#9;&#9;&#9;c-0.9-1.4-0.6-3.2,0.7-4.2l34-27.8c3.6-2.9,8.2-4.1,12.7-3.1c4.5,1,8.3,3.9,10.4,8c2.4,4.9,2.1,10.7-1,15.2l-30.6,45.2&#10;&#9;&#9;&#9;&#9;C723.9,540.4,722.9,540.9,721.8,540.9z M705.3,505.1l16.7,26.7l27.8-41.1c1.8-2.6,2-6,0.6-8.8c-1.2-2.4-3.4-4.1-6-4.6&#10;&#9;&#9;&#9;&#9;c-2.6-0.6-5.3,0.1-7.3,1.8L705.3,505.1z" style="fill: rgb(35, 31, 32);"/>
		</g>
		<g>
			<path d="M 701.0999755859375 504.3999938964844 L 686.0999755859375 528.2999877929688 L 701.0999755859375 535.7000122070312 L 716 528.2999877929688 Z" class="st7" style="fill: rgb(254, 225, 204);"/>
			<path class="st2" d="M701.1,538.9c-0.5,0-1-0.1-1.4-0.3l-14.9-7.4c-0.8-0.4-1.4-1.1-1.7-2c-0.2-0.9-0.1-1.8,0.4-2.6l14.9-23.9&#10;&#9;&#9;&#9;&#9;c0.6-0.9,1.6-1.5,2.7-1.5s2.1,0.6,2.7,1.5l14.9,23.9c0.5,0.8,0.6,1.7,0.4,2.6c-0.2,0.9-0.8,1.6-1.7,2l-14.9,7.4&#10;&#9;&#9;&#9;&#9;C702,538.8,701.5,538.9,701.1,538.9z M690.7,527l10.3,5.1l10.3-5.1l-10.3-16.5L690.7,527z" style="fill: rgb(35, 31, 32);"/>
		</g>
		<g>
			<path class="st2" d="M701.1,660.2c-1.8,0-3.2-1.4-3.2-3.2v-90.1c0-1.8,1.4-3.2,3.2-3.2c1.8,0,3.2,1.4,3.2,3.2V657&#10;&#9;&#9;&#9;&#9;C704.3,658.7,702.8,660.2,701.1,660.2z" style="fill: rgb(35, 31, 32);"/>
		</g>
		<g>
			<path class="st2" d="M715.5,586.3c-2.3,0-4.2-1.9-4.2-4.2s1.9-4.2,4.2-4.2c2.3,0,4.2,1.9,4.2,4.2S717.8,586.3,715.5,586.3z&#10;&#9;&#9;&#9;&#9; M715.5,579.9c-1.2,0-2.2,1-2.2,2.2s1,2.2,2.2,2.2c1.2,0,2.2-1,2.2-2.2S716.7,579.9,715.5,579.9z" style="fill: rgb(35, 31, 32);"/>
		</g>
		<g>
			<path class="st2" d="M715.5,617.4c-2.3,0-4.2-1.9-4.2-4.2s1.9-4.2,4.2-4.2c2.3,0,4.2,1.9,4.2,4.2S717.8,617.4,715.5,617.4z&#10;&#9;&#9;&#9;&#9; M715.5,611c-1.2,0-2.2,1-2.2,2.2c0,1.2,1,2.2,2.2,2.2c1.2,0,2.2-1,2.2-2.2C717.7,612,716.7,611,715.5,611z" style="fill: rgb(35, 31, 32);"/>
		</g>
		<g>
			<path class="st2" d="M715.5,648.6c-2.3,0-4.2-1.9-4.2-4.2s1.9-4.2,4.2-4.2c2.3,0,4.2,1.9,4.2,4.2S717.8,648.6,715.5,648.6z&#10;&#9;&#9;&#9;&#9; M715.5,642.1c-1.2,0-2.2,1-2.2,2.2s1,2.2,2.2,2.2c1.2,0,2.2-1,2.2-2.2S716.7,642.1,715.5,642.1z" style="fill: rgb(35, 31, 32);"/>
		</g>
		<g>
			<path class="st5" d="M430.5,277.2l-18.9,12.5l-11-17.1v22l-26.9,28.1l-16.2-29.6c0,0,18.3-37.9,59.2-43.4&#10;&#9;&#9;&#9;&#9;C425.6,266.2,430.5,277.2,430.5,277.2z" style="fill: rgb(128, 128, 128);"/>
			<path class="st2" d="M373.7,325.9c-0.1,0-0.3,0-0.4,0c-1-0.1-1.9-0.7-2.4-1.6l-16.2-29.6c-0.5-0.9-0.5-2-0.1-2.9&#10;&#9;&#9;&#9;&#9;c0.8-1.6,19.6-39.5,61.7-45.1c1.3-0.2,2.6,0.5,3.3,1.7c8.8,16.4,13.8,27.6,13.8,27.7c0.6,1.4,0.1,3.1-1.2,4l-18.9,12.5&#10;&#9;&#9;&#9;&#9;c-0.7,0.5-1.6,0.6-2.4,0.5c-0.8-0.2-1.6-0.7-2-1.4l-5.1-7.9v11.1c0,0.8-0.3,1.6-0.9,2.2L376,324.9&#10;&#9;&#9;&#9;&#9;C375.4,325.6,374.5,325.9,373.7,325.9z M361.1,293.1l13.3,24.3l23-24v-20.7c0-1.4,0.9-2.7,2.3-3.1c1.4-0.4,2.8,0.1,3.6,1.3&#10;&#9;&#9;&#9;&#9;l9.2,14.4l13.9-9.2c-1.8-3.9-5.7-12.1-11.4-22.8C382.1,258.7,364.8,286.5,361.1,293.1z" style="fill: rgb(35, 31, 32);"/>
		</g>
		<g>
			<path class="st5" d="M371.7,525.9l-5.3,22.1l-19.7-5l15,16.1l-0.5,38.9l-32-10.7c0,0-12.4-40.2,13.8-72.1&#10;&#9;&#9;&#9;&#9;C360.7,521.2,371.7,525.9,371.7,525.9z" style="fill: rgb(128, 128, 128);"/>
			<path class="st2" d="M361.1,601.2c-0.3,0-0.7-0.1-1-0.2l-32-10.7c-1-0.3-1.7-1.1-2.1-2.1c-0.5-1.7-12.6-42.2,14.4-75.1&#10;&#9;&#9;&#9;&#9;c0.8-1,2.2-1.4,3.5-1c17.6,6,28.9,10.8,29,10.9c1.4,0.6,2.2,2.2,1.9,3.7l-5.3,22.1c-0.2,0.8-0.7,1.6-1.5,2&#10;&#9;&#9;&#9;&#9;c-0.7,0.4-1.6,0.6-2.4,0.4l-9.1-2.3l7.5,8.1c0.6,0.6,0.9,1.4,0.9,2.2l-0.5,38.9c0,1-0.5,2-1.3,2.6&#10;&#9;&#9;&#9;&#9;C362.5,600.9,361.8,601.2,361.1,601.2z M331.8,584.8l26.2,8.7l0.5-33.2l-14.1-15.2c-1-1-1.1-2.6-0.4-3.8c0.7-1.2,2.2-1.8,3.6-1.5&#10;&#9;&#9;&#9;&#9;l16.6,4.2l3.9-16.2c-4-1.6-12.4-4.9-23.9-8.9C323.8,545.3,330,577.4,331.8,584.8z" style="fill: rgb(35, 31, 32);"/>
		</g>
		<g>
			<path class="st5" d="M415.1,763.1l9.6,20.6l-18.5,8.3l21.7,3.3l23.8,30.7L420,837.6c0,0-34.7-23.7-34.1-65&#10;&#9;&#9;&#9;&#9;C403.5,766.3,415.1,763.1,415.1,763.1z" style="fill: rgb(128, 128, 128);"/>
			<path class="st2" d="M420,840.8c-0.6,0-1.3-0.2-1.8-0.6c-1.5-1-36.1-25.2-35.5-67.7c0-1.3,0.9-2.5,2.1-3&#10;&#9;&#9;&#9;&#9;c17.5-6.3,29.3-9.6,29.4-9.6c1.5-0.4,3.1,0.3,3.8,1.7l9.6,20.6c0.4,0.8,0.4,1.7,0.1,2.5c-0.3,0.8-0.9,1.5-1.7,1.8l-8.6,3.9&#10;&#9;&#9;&#9;&#9;l10.9,1.6c0.8,0.1,1.6,0.6,2.1,1.2l23.8,30.7c0.6,0.8,0.8,1.9,0.5,2.9c-0.3,1-1,1.8-2,2.1l-31.7,11.6&#10;&#9;&#9;&#9;&#9;C420.7,840.8,420.4,840.8,420,840.8z M389.1,774.9c0.6,33.4,25.4,54.5,31.4,59.2l26-9.5l-20.3-26.3l-20.5-3.1&#10;&#9;&#9;&#9;&#9;c-1.4-0.2-2.5-1.3-2.7-2.7c-0.2-1.4,0.6-2.8,1.9-3.4l15.6-7l-7-15.1C409.3,768.1,400.6,770.8,389.1,774.9z" style="fill: rgb(35, 31, 32);"/>
		</g>
		<g>
			<g>
				<path class="st9" d="M314.2,318.4l-71.6-19.8c-13.2-3.7-21-17.4-17.3-30.6l47.5-171.6c3.7-13.2,17.4-21,30.6-17.3L375,98.9&#10;&#9;&#9;&#9;&#9;&#9;c13.2,3.7,21,17.4,17.3,30.6l-47.5,171.6C341.1,314.3,327.4,322.1,314.2,318.4z" style="fill: rgb(252, 165, 102);"/>
				<path class="st2" d="M322.3,323c-2.3,0-4.7-0.3-7-1l-75.6-20.9c-13.8-3.8-21.9-18.2-18.1-32l48.7-175.6&#10;&#9;&#9;&#9;&#9;&#9;c3.8-13.8,18.2-21.9,32-18.1l75.6,20.9c6.7,1.9,12.3,6.2,15.7,12.2c3.4,6,4.3,13.1,2.4,19.7L347.3,304&#10;&#9;&#9;&#9;&#9;&#9;c-1.9,6.7-6.2,12.3-12.2,15.7C331.1,321.9,326.7,323,322.3,323z M295.3,80.9c-3.3,0-6.6,0.9-9.6,2.5c-4.5,2.6-7.8,6.8-9.2,11.8&#10;&#9;&#9;&#9;&#9;&#9;l-48.7,175.6c-2.9,10.4,3.2,21.2,13.6,24.1l75.6,20.9c5,1.4,10.3,0.7,14.9-1.8c4.5-2.6,7.8-6.8,9.2-11.8l48.7-175.6&#10;&#9;&#9;&#9;&#9;&#9;c1.4-5,0.7-10.3-1.8-14.9s-6.8-7.8-11.8-9.2l-75.6-20.9C298.8,81.1,297.1,80.9,295.3,80.9z" style="fill: rgb(35, 31, 32);"/>
			</g>
			<g>
				<path class="st6" d="M229.5,252.8l41.1-148.5c1.8-6.6,8.6-10.4,15.2-8.6l95.7,26.5c6.6,1.8,10.4,8.6,8.6,15.2L349,285.9&#10;&#9;&#9;&#9;&#9;&#9;c-1.8,6.6-8.6,10.4-15.2,8.6L238.1,268C231.5,266.2,227.7,259.4,229.5,252.8z" style="fill: rgb(255, 218, 117);"/>
				<path class="st2" d="M337.8,298.4c-1.3,0-2.6-0.2-3.9-0.5l-97.7-27.1c-7.7-2.1-12.3-10.2-10.1-17.9v0l41.7-150.5&#10;&#9;&#9;&#9;&#9;&#9;c2.1-7.7,10.2-12.3,17.9-10.1l97.7,27.1c7.7,2.1,12.3,10.2,10.1,17.9l-41.7,150.5C350,294.2,344.1,298.4,337.8,298.4z&#10;&#9;&#9;&#9;&#9;&#9; M232.3,254.7c-1.2,4.3,1.3,8.8,5.7,10l97.7,27.1c4.3,1.2,8.8-1.3,10-5.7l41.7-150.5c1.2-4.3-1.3-8.8-5.7-10L284,98.5&#10;&#9;&#9;&#9;&#9;&#9;c-4.3-1.2-8.8,1.3-10,5.7L232.3,254.7L232.3,254.7z" style="fill: rgb(35, 31, 32);"/>
			</g>
			<g>
				<path class="st10" d="M294,301.1c-0.3,0-0.6,0-0.9-0.1l-23.5-6.5c-1.7-0.5-2.7-2.2-2.2-3.9c0.5-1.7,2.2-2.7,3.9-2.2l23.5,6.5&#10;&#9;&#9;&#9;&#9;&#9;c1.7,0.5,2.7,2.2,2.2,3.9C296.7,300.2,295.4,301.1,294,301.1z" style="fill: rgb(221, 105, 102);"/>
			</g>
		</g>
		<g>
			<path class="st11" d="M343.7,241c-0.3,0-0.6,0-0.9-0.1c-1.7-0.5-2.7-2.3-2.2-4l1.2-4.1c0.5-1.7,2.3-2.7,4-2.2&#10;&#9;&#9;&#9;&#9;c1.7,0.5,2.7,2.3,2.2,4l-1.2,4.1C346.4,240.1,345.1,241,343.7,241z" style="fill: rgb(255, 243, 209);"/>
		</g>
		<g>
			<path class="st11" d="M349.4,221.4c-0.3,0-0.6,0-0.9-0.1c-1.7-0.5-2.7-2.3-2.2-4l19.7-68.7c1.2-4.2-1.2-8.6-5.4-9.8l-25.4-7.5&#10;&#9;&#9;&#9;&#9;c-1.7-0.5-2.7-2.3-2.2-4c0.5-1.7,2.3-2.7,4-2.2l25.4,7.5c7.5,2.2,11.9,10.2,9.7,17.7l-19.7,68.7&#10;&#9;&#9;&#9;&#9;C352.1,220.5,350.8,221.4,349.4,221.4z" style="fill: rgb(255, 243, 209);"/>
		</g>
		<g>
			<path class="st12" d="M145.1,644.3l119.7,7c14.7,0.9,27.3-10.3,28.1-25l11.9-202.9c0.9-14.7-10.3-27.3-25-28.1l-119.7-7&#10;&#9;&#9;&#9;&#9;c-14.7-0.9-27.3,10.3-28.1,25l-11.9,202.9C119.2,630.9,130.5,643.5,145.1,644.3z" style="fill: rgb(230, 230, 230);"/>
			<path class="st2" d="M268.5,654.7c-0.6,0-1.1,0-1.7,0l-124.1-7.3c-7.4-0.4-14.1-3.7-19-9.2c-4.9-5.5-7.4-12.6-6.9-20L129,410.8&#10;&#9;&#9;&#9;&#9;c0.9-15.2,14-26.8,29.2-25.9l124.1,7.3c7.4,0.4,14.1,3.7,19,9.2c4.9,5.5,7.4,12.6,6.9,20L296,628.8c-0.4,7.4-3.7,14.1-9.2,19&#10;&#9;&#9;&#9;&#9;C281.7,652.3,275.3,654.7,268.5,654.7z M143.1,641l124.1,7.3c5.6,0.3,11.1-1.6,15.3-5.3s6.7-8.9,7.1-14.6L301.8,421&#10;&#9;&#9;&#9;&#9;c0.3-5.7-1.6-11.1-5.3-15.3c-3.8-4.2-8.9-6.7-14.6-7.1l-124.1-7.3c-11.7-0.7-21.7,8.2-22.4,19.9l-12.2,207.4&#10;&#9;&#9;&#9;&#9;c-0.3,5.7,1.6,11.1,5.3,15.3C132.3,638.1,137.4,640.7,143.1,641L143.1,641z" style="fill: rgb(35, 31, 32);"/>
		</g>
		<g>
			<path class="st9" d="M243.9,413.1l-50-2.9c-6.9-0.4-12.2-6.3-11.8-13.3l0.6-10.9c0.4-6.9,6.3-12.2,13.3-11.8l50,2.9&#10;&#9;&#9;&#9;&#9;c6.9,0.4,12.2,6.3,11.8,13.3l-0.6,10.9C256.7,408.2,250.8,413.5,243.9,413.1z" style="fill: rgb(252, 165, 102);"/>
			<path class="st2" d="M245.6,416.3c-0.3,0-0.6,0-0.9,0l0,0l-52.1-3.1c-3.9-0.2-7.5-2-10.1-4.9c-2.6-2.9-3.9-6.7-3.7-10.6l0.8-13&#10;&#9;&#9;&#9;&#9;c0.2-3.9,2-7.5,4.9-10.1c2.9-2.6,6.7-3.9,10.6-3.7l52.1,3.1c8.1,0.5,14.3,7.4,13.8,15.5l-0.8,13&#10;&#9;&#9;&#9;&#9;C259.8,410.3,253.3,416.3,245.6,416.3z M245.1,409.9c4.6,0.3,8.5-3.2,8.8-7.8l0.8-13c0.3-4.6-3.2-8.5-7.8-8.8l-52.1-3.1&#10;&#9;&#9;&#9;&#9;c-2.2-0.1-4.3,0.6-6,2.1c-1.7,1.5-2.6,3.5-2.8,5.7l-0.8,13c-0.3,4.6,3.2,8.5,7.8,8.8L245.1,409.9z" style="fill: rgb(35, 31, 32);"/>
		</g>
		<g>
			<path class="st2" d="M265.9,470c-0.1,0-0.1,0-0.2,0c-5.8-0.3-8.5-4.4-10.5-7.4c-2-2.9-3.1-4.4-5.6-4.6c-2.5-0.2-3.8,1.2-6.1,3.9&#10;&#9;&#9;&#9;&#9;c-2.3,2.7-5.5,6.4-11.3,6.1c-5.8-0.3-8.5-4.4-10.5-7.4c-2-2.9-3.1-4.4-5.6-4.6c-2.5-0.1-3.8,1.2-6.1,3.9&#10;&#9;&#9;&#9;&#9;c-2.3,2.7-5.5,6.4-11.3,6.1c-5.8-0.3-8.5-4.4-10.5-7.4c-1.9-2.9-3.1-4.4-5.6-4.6c-2.5-0.1-3.8,1.2-6.1,3.9&#10;&#9;&#9;&#9;&#9;c-2.3,2.7-5.5,6.4-11.3,6.1c-1.8-0.1-3.1-1.6-3-3.4c0.1-1.8,1.6-3.1,3.4-3c2.5,0.2,3.8-1.2,6.1-3.9c2.3-2.7,5.5-6.4,11.3-6.1&#10;&#9;&#9;&#9;&#9;c5.8,0.3,8.5,4.4,10.5,7.4c1.9,2.9,3.1,4.4,5.6,4.6c2.5,0.2,3.8-1.2,6.1-3.9c2.3-2.7,5.5-6.4,11.3-6.1c5.8,0.3,8.5,4.4,10.5,7.4&#10;&#9;&#9;&#9;&#9;c1.9,2.9,3.1,4.4,5.6,4.6c2.5,0.1,3.8-1.2,6.1-3.9c2.3-2.7,5.5-6.4,11.3-6.1c5.8,0.3,8.5,4.4,10.5,7.4c2,2.9,3.1,4.4,5.6,4.6&#10;&#9;&#9;&#9;&#9;c1.8,0.1,3.1,1.6,3,3.4C269,468.7,267.6,470,265.9,470z" style="fill: rgb(35, 31, 32);"/>
		</g>
		<g>
			<path class="st2" d="M263.7,508.2c-0.1,0-0.1,0-0.2,0c-5.8-0.3-8.5-4.4-10.5-7.4c-2-2.9-3.1-4.4-5.6-4.6&#10;&#9;&#9;&#9;&#9;c-2.5-0.2-3.8,1.2-6.1,3.9c-2.3,2.7-5.5,6.4-11.3,6.1c-5.8-0.3-8.5-4.4-10.5-7.4c-1.9-2.9-3.1-4.4-5.6-4.6&#10;&#9;&#9;&#9;&#9;c-2.5-0.2-3.8,1.2-6.1,3.9c-2.3,2.7-5.5,6.4-11.3,6.1c-5.8-0.3-8.5-4.4-10.5-7.4c-1.9-2.9-3.1-4.4-5.6-4.6&#10;&#9;&#9;&#9;&#9;c-2.5-0.1-3.8,1.2-6.1,3.9c-2.3,2.7-5.5,6.4-11.3,6.1c-1.8-0.1-3.1-1.6-3-3.4c0.1-1.8,1.6-3.1,3.4-3c2.5,0.2,3.8-1.2,6.1-3.9&#10;&#9;&#9;&#9;&#9;c2.3-2.7,5.5-6.4,11.3-6.1c5.8,0.3,8.5,4.4,10.5,7.4c1.9,2.9,3.1,4.4,5.6,4.6c2.5,0.2,3.8-1.2,6.1-3.9c2.3-2.7,5.5-6.4,11.3-6.1&#10;&#9;&#9;&#9;&#9;c5.8,0.3,8.5,4.4,10.5,7.4c1.9,2.9,3.1,4.4,5.6,4.6c2.5,0.1,3.8-1.2,6.1-3.9c2.3-2.7,5.5-6.4,11.3-6.1c5.8,0.3,8.5,4.4,10.5,7.4&#10;&#9;&#9;&#9;&#9;c2,2.9,3.1,4.4,5.6,4.6c1.8,0.1,3.1,1.6,3,3.4C266.8,506.9,265.4,508.2,263.7,508.2z" style="fill: rgb(35, 31, 32);"/>
		</g>
		<g>
			<path class="st2" d="M261.4,546.4c-0.1,0-0.1,0-0.2,0c-5.8-0.3-8.5-4.4-10.5-7.4c-2-2.9-3.1-4.4-5.6-4.6&#10;&#9;&#9;&#9;&#9;c-2.5-0.2-3.8,1.2-6.1,3.9c-2.3,2.7-5.5,6.4-11.3,6.1c-5.8-0.3-8.5-4.4-10.5-7.4c-1.9-2.9-3.1-4.4-5.6-4.6&#10;&#9;&#9;&#9;&#9;c-2.5-0.1-3.8,1.2-6.1,3.9c-2.3,2.7-5.5,6.4-11.3,6.1c-5.8-0.3-8.5-4.4-10.5-7.4c-1.9-2.9-3.1-4.4-5.6-4.6&#10;&#9;&#9;&#9;&#9;c-2.5-0.1-3.8,1.2-6.1,3.9c-2.3,2.7-5.5,6.4-11.3,6.1c-1.8-0.1-3.1-1.6-3-3.4c0.1-1.8,1.6-3.1,3.4-3c2.5,0.1,3.8-1.2,6.1-3.9&#10;&#9;&#9;&#9;&#9;c2.3-2.7,5.5-6.4,11.3-6.1c5.8,0.3,8.5,4.4,10.5,7.4c1.9,2.9,3.1,4.4,5.6,4.6c2.5,0.2,3.8-1.2,6.1-3.9c2.3-2.7,5.5-6.4,11.3-6.1&#10;&#9;&#9;&#9;&#9;c5.8,0.3,8.5,4.4,10.5,7.4c2,2.9,3.1,4.4,5.6,4.6c2.5,0.1,3.8-1.2,6.1-3.9c2.3-2.7,5.6-6.4,11.3-6.1c5.8,0.3,8.5,4.4,10.5,7.4&#10;&#9;&#9;&#9;&#9;c2,2.9,3.1,4.4,5.6,4.6c1.8,0.1,3.1,1.6,3,3.4C264.5,545.1,263.1,546.4,261.4,546.4z" style="fill: rgb(35, 31, 32);"/>
		</g>
		<g>
			<path class="st2" d="M259.2,584.6c-0.1,0-0.1,0-0.2,0c-5.8-0.3-8.5-4.4-10.5-7.4c-2-2.9-3.1-4.4-5.6-4.6&#10;&#9;&#9;&#9;&#9;c-2.5-0.2-3.8,1.2-6.1,3.9c-2.3,2.7-5.5,6.4-11.3,6.1c-5.8-0.3-8.5-4.4-10.5-7.4c-2-2.9-3.1-4.4-5.6-4.6&#10;&#9;&#9;&#9;&#9;c-2.5-0.1-3.8,1.2-6.1,3.9c-2.3,2.7-5.5,6.4-11.3,6.1c-5.8-0.3-8.5-4.4-10.5-7.4c-1.9-2.9-3.1-4.4-5.6-4.6&#10;&#9;&#9;&#9;&#9;c-2.5-0.1-3.8,1.2-6.1,3.9c-2.3,2.7-5.5,6.4-11.3,6.1c-1.8-0.1-3.1-1.6-3-3.4c0.1-1.8,1.6-3.1,3.4-3c2.5,0.2,3.8-1.2,6.1-3.9&#10;&#9;&#9;&#9;&#9;c2.3-2.7,5.5-6.4,11.3-6.1c5.8,0.3,8.5,4.4,10.5,7.4c1.9,2.9,3.1,4.4,5.6,4.6c2.5,0.1,3.8-1.2,6.1-3.9c2.3-2.7,5.5-6.4,11.3-6.1&#10;&#9;&#9;&#9;&#9;c5.8,0.3,8.5,4.4,10.5,7.4c1.9,2.9,3.1,4.4,5.6,4.6c2.5,0.1,3.8-1.2,6.1-3.9c2.3-2.7,5.5-6.4,11.3-6.1c5.8,0.3,8.5,4.4,10.5,7.4&#10;&#9;&#9;&#9;&#9;c2,2.9,3.1,4.4,5.6,4.6c1.8,0.1,3.1,1.6,3,3.4C262.3,583.2,260.9,584.6,259.2,584.6z" style="fill: rgb(35, 31, 32);"/>
		</g>
		<g>
			<path class="st7" d="M242.6,393.8c-0.1,0-0.1,0-0.2,0l-2.1-0.1c-1.8-0.1-3.1-1.6-3-3.4c0.1-1.8,1.6-3.1,3.4-3l2.1,0.1&#10;&#9;&#9;&#9;&#9;c1.8,0.1,3.1,1.6,3,3.4C245.7,392.5,244.3,393.8,242.6,393.8z" style="fill: rgb(254, 225, 204);"/>
		</g>
		<g>
			<path class="st7" d="M229,393c-0.1,0-0.1,0-0.2,0l-21-1.2c-1.8-0.1-3.1-1.6-3-3.4c0.1-1.8,1.6-3.1,3.4-3l21,1.2&#10;&#9;&#9;&#9;&#9;c1.8,0.1,3.1,1.6,3,3.4C232.1,391.7,230.7,393,229,393z" style="fill: rgb(254, 225, 204);"/>
		</g>
		<g>
			<path class="st13" d="M261.7,632.8c-0.3,0-0.5,0-0.8,0l-75-4.4c-1.8-0.1-3.1-1.6-3-3.4c0.1-1.8,1.6-3.1,3.4-3l75,4.4&#10;&#9;&#9;&#9;&#9;c1.9,0.1,3.8-0.5,5.2-1.8c1.4-1.3,2.3-3,2.4-5l0.4-6.4c0.1-1.8,1.6-3.1,3.4-3c1.8,0.1,3.1,1.6,3,3.4l-0.4,6.4&#10;&#9;&#9;&#9;&#9;c-0.2,3.6-1.8,7-4.5,9.4C268.2,631.6,265.1,632.8,261.7,632.8z" style="fill: rgb(255, 255, 255);"/>
		</g>
		<g>
			<path d="M 342 808.900024 A 96.699997 96.699997 0 0 1 245.300003 905.600021 A 96.699997 96.699997 0 0 1 148.600006 808.900024 A 96.699997 96.699997 0 0 1 245.300003 712.200027 A 96.699997 96.699997 0 0 1 342 808.900024 Z" class="st9" style="fill: rgb(252, 165, 102);"/>
			<path class="st2" d="M245.3,908.8c-55.1,0-100-44.8-100-100c0-55.1,44.8-100,100-100s100,44.8,100,100&#10;&#9;&#9;&#9;&#9;C345.2,864,300.4,908.8,245.3,908.8z M245.3,715.3c-51.6,0-93.5,42-93.5,93.5s42,93.5,93.5,93.5s93.5-42,93.5-93.5&#10;&#9;&#9;&#9;&#9;S296.9,715.3,245.3,715.3z" style="fill: rgb(35, 31, 32);"/>
		</g>
		<g>
			<path d="M 319 808.900024 A 73.699997 73.699997 0 0 1 245.300003 882.600021 A 73.699997 73.699997 0 0 1 171.600006 808.900024 A 73.699997 73.699997 0 0 1 245.300003 735.200027 A 73.699997 73.699997 0 0 1 319 808.900024 Z" class="st6" style="fill: rgb(255, 218, 117);"/>
			<path class="st2" d="M245.3,885.8c-42.4,0-76.9-34.5-76.9-76.9s34.5-76.9,76.9-76.9s76.9,34.5,76.9,76.9S287.7,885.8,245.3,885.8&#10;&#9;&#9;&#9;&#9;z M245.3,738.4c-38.9,0-70.5,31.6-70.5,70.5c0,38.9,31.6,70.5,70.5,70.5s70.5-31.6,70.5-70.5C315.8,770,284.2,738.4,245.3,738.4z&#10;&#9;&#9;&#9;&#9;" style="fill: rgb(35, 31, 32);"/>
		</g>
		<g>
			<path class="st11" d="M297.4,796.3c-1.4,0-2.6-0.9-3.1-2.3c-0.3-1-0.6-2-1-2.9c-0.6-1.7,0.2-3.5,1.9-4.1c1.7-0.6,3.5,0.2,4.1,1.9&#10;&#9;&#9;&#9;&#9;c0.4,1.1,0.8,2.2,1.1,3.3c0.5,1.7-0.4,3.5-2.1,4C298,796.2,297.7,796.3,297.4,796.3z" style="fill: rgb(255, 243, 209);"/>
		</g>
		<g>
			<path class="st11" d="M291,782.5c-1.1,0-2.1-0.5-2.7-1.5c-5.8-8.9-14-15.7-23.8-19.7c-1.6-0.7-2.4-2.5-1.8-4.2&#10;&#9;&#9;&#9;&#9;c0.7-1.6,2.5-2.4,4.2-1.8c11,4.5,20.3,12.1,26.7,22.2c1,1.5,0.5,3.5-0.9,4.4C292.2,782.4,291.6,782.5,291,782.5z" style="fill: rgb(255, 243, 209);"/>
		</g>
		<g>
			<path class="st2" d="M186.6,715.9c-1.1,0-2.1-0.5-2.7-1.5l-6.4-10c-0.9-1.5-0.5-3.5,1-4.4c1.5-0.9,3.5-0.5,4.4,1l6.4,10&#10;&#9;&#9;&#9;&#9;c0.9,1.5,0.5,3.5-1,4.4C187.7,715.7,187.1,715.9,186.6,715.9z" style="fill: rgb(35, 31, 32);"/>
		</g>
		<g>
			<path class="st2" d="M245.3,762.8c-1.8,0-3.2-1.4-3.2-3.2v-24.4c0-1.8,1.4-3.2,3.2-3.2s3.2,1.4,3.2,3.2v24.4&#10;&#9;&#9;&#9;&#9;C248.5,761.4,247.1,762.8,245.3,762.8z" style="fill: rgb(35, 31, 32);"/>
		</g>
		<g>
			<path class="st2" d="M319,812.1h-24.4c-1.8,0-3.2-1.4-3.2-3.2c0-1.8,1.4-3.2,3.2-3.2H319c1.8,0,3.2,1.4,3.2,3.2&#10;&#9;&#9;&#9;&#9;C322.2,810.6,320.8,812.1,319,812.1z" style="fill: rgb(35, 31, 32);"/>
		</g>
		<g>
			<path class="st2" d="M245.3,885.8c-1.8,0-3.2-1.4-3.2-3.2v-24.4c0-1.8,1.4-3.2,3.2-3.2s3.2,1.4,3.2,3.2v24.4&#10;&#9;&#9;&#9;&#9;C248.5,884.3,247.1,885.8,245.3,885.8z" style="fill: rgb(35, 31, 32);"/>
		</g>
		<g>
			<path class="st2" d="M196,812.1h-24.4c-1.8,0-3.2-1.4-3.2-3.2c0-1.8,1.4-3.2,3.2-3.2H196c1.8,0,3.2,1.4,3.2,3.2&#10;&#9;&#9;&#9;&#9;C199.2,810.6,197.8,812.1,196,812.1z" style="fill: rgb(35, 31, 32);"/>
		</g>
		<g>
			<path class="st10" d="M215.2,863.6c-1,0-2-0.3-2.9-0.8c-2.6-1.6-3.4-5-1.8-7.6l28.1-46.1l-20.9-28c-1.8-2.4-1.3-5.9,1.1-7.7&#10;&#9;&#9;&#9;&#9;c2.4-1.8,5.9-1.3,7.7,1.1l23.2,30.9c1.3,1.8,1.5,4.2,0.3,6.2l-30,49.3C218.9,862.7,217.1,863.6,215.2,863.6z" style="fill: rgb(221, 105, 102);"/>
		</g>
		<g>
			<path d="M 650.9000244140625 697.5 L 674.2999877929688 779.2999877929688 L 677.2000122070312 882.5999755859375 L 701.0999755859375 882.5999755859375 L 701.0999755859375 697.5 Z" class="st4" style="fill: rgb(102, 102, 102);"/>
			<path class="st2" d="M701.1,885.8h-23.8c-1.7,0-3.2-1.4-3.2-3.1l-2.9-102.8l-23.4-81.5c-0.3-1-0.1-2,0.5-2.8&#10;&#9;&#9;&#9;&#9;c0.6-0.8,1.6-1.3,2.6-1.3h50.2c1.8,0,3.2,1.4,3.2,3.2v185.1C704.3,884.3,702.8,885.8,701.1,885.8z M680.4,879.3h17.5V700.7h-42.7&#10;&#9;&#9;&#9;&#9;l22.3,77.8c0.1,0.3,0.1,0.5,0.1,0.8L680.4,879.3z" style="fill: rgb(35, 31, 32);"/>
		</g>
		<g>
			<path d="M 751.2999877929688 697.5 L 727.7999877929688 779.2999877929688 L 724.9000244140625 882.5999755859375 L 701.0999755859375 882.5999755859375 L 701.0999755859375 697.5 Z" class="st4" style="fill: rgb(102, 102, 102);"/>
			<path class="st2" d="M724.9,885.8h-23.8c-1.8,0-3.2-1.4-3.2-3.2V697.5c0-1.8,1.4-3.2,3.2-3.2h50.2c1,0,2,0.5,2.6,1.3&#10;&#9;&#9;&#9;&#9;c0.6,0.8,0.8,1.8,0.5,2.8L731,779.8l-2.9,102.8C728,884.4,726.6,885.8,724.9,885.8z M704.3,879.3h17.5l2.8-100.1&#10;&#9;&#9;&#9;&#9;c0-0.3,0-0.5,0.1-0.8l22.3-77.8h-42.7V879.3z" style="fill: rgb(35, 31, 32);"/>
		</g>
		<g>
			<path class="st1" d="M695.9,874.2l-42.3-11.8c-2.2-0.6-4.6-0.1-6.4,1.4L625,882.7c-1.6,1.3-2.5,3.3-2.5,5.3l0,0c0,3.9,3.1,7,7,7&#10;&#9;&#9;&#9;&#9;H694c3.9,0,7-3.1,7-7v-7.1C701.1,877.8,699,875,695.9,874.2z" style="fill: rgb(204, 204, 204);"/>
			<path class="st2" d="M694,898.2h-64.5c-5.6,0-10.2-4.6-10.2-10.2c0-3,1.3-5.8,3.6-7.8l22.2-18.9c2.6-2.2,6.1-3,9.4-2.1l42.3,11.8&#10;&#9;&#9;&#9;&#9;c0,0,0,0,0,0c4.4,1.2,7.5,5.3,7.5,9.8v7.1C704.3,893.7,699.7,898.2,694,898.2z M651.7,865.4c-0.9,0-1.8,0.3-2.5,0.9l-22.2,18.9&#10;&#9;&#9;&#9;&#9;c-0.9,0.7-1.3,1.8-1.3,2.9c0,2.1,1.7,3.8,3.8,3.8H694c2.1,0,3.8-1.7,3.8-3.8v-7.1c0-1.7-1.1-3.2-2.8-3.7l-42.3-11.8&#10;&#9;&#9;&#9;&#9;C652.4,865.4,652.1,865.4,651.7,865.4z" style="fill: rgb(35, 31, 32);"/>
		</g>
		<g>
			<path class="st1" d="M706.2,874.2l42.3-11.8c2.2-0.6,4.6-0.1,6.4,1.4l22.2,18.9c1.6,1.3,2.5,3.3,2.5,5.3l0,0c0,3.9-3.1,7-7,7&#10;&#9;&#9;&#9;&#9;h-64.5c-3.9,0-7-3.1-7-7v-7.1C701.1,877.8,703.2,875,706.2,874.2z" style="fill: rgb(204, 204, 204);"/>
			<path class="st2" d="M772.5,898.2h-64.5c-5.6,0-10.2-4.6-10.2-10.2v-7.1c0-4.6,3.1-8.6,7.5-9.8c0,0,0,0,0,0l42.3-11.8&#10;&#9;&#9;&#9;&#9;c3.3-0.9,6.8-0.1,9.4,2.1l22.2,18.9c2.3,1.9,3.6,4.8,3.6,7.8C782.8,893.7,778.2,898.2,772.5,898.2z M707,877.3&#10;&#9;&#9;&#9;&#9;c-1.6,0.5-2.8,2-2.8,3.7v7.1c0,2.1,1.7,3.8,3.8,3.8h64.5c2.1,0,3.8-1.7,3.8-3.8c0-1.1-0.5-2.2-1.3-2.9l-22.2-18.9&#10;&#9;&#9;&#9;&#9;c-1-0.8-2.3-1.1-3.5-0.8L707,877.3z" style="fill: rgb(35, 31, 32);"/>
		</g>
		<g>
			<g>
				<path class="st2" d="M1110.5,845.3c-0.7,0-1.4-0.1-2-0.3l-34.4-11.5c-11.1-3.7-18.2-14.4-17.4-26l2-30&#10;&#9;&#9;&#9;&#9;&#9;c0.5-6.8,3.6-13.1,8.7-17.6c5.2-4.5,11.8-6.7,18.6-6.3l26.5,1.8c3.5,0.2,6.2,3.3,6,6.8c-0.2,3.5-3.3,6.2-6.8,6l-26.5-1.8&#10;&#9;&#9;&#9;&#9;&#9;c-3.4-0.2-6.7,0.9-9.3,3.1c-2.6,2.2-4.1,5.4-4.3,8.8l-2,30c-0.4,5.8,3.2,11.2,8.7,13l34.4,11.5c3.4,1.1,5.2,4.8,4.1,8.1&#10;&#9;&#9;&#9;&#9;&#9;C1115.7,843.6,1113.2,845.3,1110.5,845.3z" style="fill: rgb(35, 31, 32);"/>
			</g>
			<g>
				<path class="st12" d="M1195.8,899l-74.8-5.1c-13.8-0.9-24.3-12.9-23.3-26.7l7.5-110.2c0.9-13.8,12.9-24.3,26.7-23.3l74.8,5.1&#10;&#9;&#9;&#9;&#9;&#9;c13.8,0.9,24.3,12.9,23.3,26.7l-7.5,110.2C1221.6,889.5,1209.6,900,1195.8,899z" style="fill: rgb(230, 230, 230);"/>
				<path class="st2" d="M1199.4,902.5c-0.6,0-1.2,0-1.8-0.1l-79-5.4c-14.4-1-25.3-13.5-24.4-27.9l7.7-114.4&#10;&#9;&#9;&#9;&#9;&#9;c1-14.4,13.5-25.3,27.9-24.4l79,5.4c7,0.5,13.4,3.6,18,8.9c4.6,5.3,6.9,12,6.4,19l-7.7,114.4&#10;&#9;&#9;&#9;&#9;&#9;C1224.6,891.8,1213.1,902.5,1199.4,902.5z M1128.1,736.7c-10.3,0-19,8-19.7,18.4l-7.7,114.4c-0.7,10.9,7.5,20.3,18.4,21.1&#10;&#9;&#9;&#9;&#9;&#9;l79,5.4l0,0c5.3,0.4,10.4-1.4,14.4-4.8c4-3.5,6.4-8.3,6.7-13.6l7.7-114.4c0.4-5.3-1.4-10.4-4.8-14.3c-3.5-4-8.3-6.4-13.6-6.7&#10;&#9;&#9;&#9;&#9;&#9;l-79-5.4C1129,736.7,1128.6,736.7,1128.1,736.7z" style="fill: rgb(35, 31, 32);"/>
			</g>
			<g>
				<path class="st13" d="M1149,871.1c-0.1,0-0.1,0-0.2,0l-5.5-0.4c-1.8-0.1-3.1-1.6-3-3.4c0.1-1.8,1.7-3.1,3.4-3l5.5,0.4&#10;&#9;&#9;&#9;&#9;&#9;c1.8,0.1,3.1,1.6,3,3.4C1152,869.8,1150.6,871.1,1149,871.1z" style="fill: rgb(255, 255, 255);"/>
			</g>
			<g>
				<path class="st13" d="M1181.4,873.3c-0.3,0-0.6,0-0.8,0l-10.8-0.7c-1.8-0.1-3.1-1.6-3-3.4c0.1-1.8,1.6-3.1,3.4-3l10.8,0.7&#10;&#9;&#9;&#9;&#9;&#9;c1.8,0.1,3.5-0.6,5-2c1.5-1.5,2.5-3.7,2.6-6.1l5.8-85.3c0.1-1.8,1.7-3.1,3.4-3c1.8,0.1,3.1,1.6,3,3.4l-5.8,85.3&#10;&#9;&#9;&#9;&#9;&#9;c-0.3,3.9-1.9,7.5-4.5,10.2C1188,871.9,1184.8,873.3,1181.4,873.3z" style="fill: rgb(255, 255, 255);"/>
			</g>
		</g>
		<g>
			<path class="st6" d="M751.1,173.2H651v-48.4c0-17.7,14.4-32.1,32.1-32.1H719c17.7,0,32.1,14.4,32.1,32.1V173.2z" style="fill: rgb(255, 218, 117);"/>
			<path class="st2" d="M751.1,176.4H651c-1.8,0-3.2-1.4-3.2-3.2v-51.1c0-18,14.6-32.6,32.6-32.6h41.3c18,0,32.6,14.6,32.6,32.6&#10;&#9;&#9;&#9;&#9;v51.1C754.3,175,752.9,176.4,751.1,176.4z M654.2,170h93.6v-47.9c0-14.4-11.7-26.2-26.2-26.2h-41.3c-14.4,0-26.2,11.7-26.2,26.2&#10;&#9;&#9;&#9;&#9;V170z" style="fill: rgb(35, 31, 32);"/>
		</g>
		<g>
			<path class="st2" d="M857.1,176.4H651c-1.8,0-3.2-1.4-3.2-3.2s1.4-3.2,3.2-3.2h206.1c1.8,0,3.2,1.4,3.2,3.2&#10;&#9;&#9;&#9;&#9;S858.9,176.4,857.1,176.4z" style="fill: rgb(35, 31, 32);"/>
		</g>
		<g>
			<path class="st8" d="M698.3,173.2H672v-11.3c0-7.3,5.9-13.2,13.2-13.2l0,0c7.3,0,13.2,5.9,13.2,13.2V173.2z" style="fill: rgb(246, 150, 82);"/>
			<path class="st2" d="M698.3,176.4H672c-1.8,0-3.2-1.4-3.2-3.2v-11.9c0-8.7,7.1-15.8,15.8-15.8h1.2c8.7,0,15.8,7.1,15.8,15.8v11.9&#10;&#9;&#9;&#9;&#9;C701.5,175,700.1,176.4,698.3,176.4z M675.2,170h19.9v-8.7c0-5.2-4.2-9.4-9.4-9.4h-1.2c-5.2,0-9.4,4.2-9.4,9.4V170z" style="fill: rgb(35, 31, 32);"/>
		</g>
		<g>
			<g>
				
					<path d="M 1122.400024 401.200012 H 1292.200027 V 626.600006 H 1122.400024 V 401.200012 Z" transform="matrix(0.9926 -0.1214 0.1214 0.9926 -53.4474 150.3426)" class="st8" style="fill: rgb(246, 150, 82);"/>
				<path class="st2" d="M1136.7,639.2c-0.7,0-1.4-0.2-2-0.7c-0.7-0.5-1.1-1.3-1.2-2.1l-27.4-223.7c-0.2-1.8,1-3.4,2.8-3.6&#10;&#9;&#9;&#9;&#9;&#9;l168.5-20.6c0.8-0.1,1.7,0.1,2.4,0.7c0.7,0.5,1.1,1.3,1.2,2.1l27.4,223.7c0.2,1.8-1,3.4-2.8,3.6l-168.5,20.6&#10;&#9;&#9;&#9;&#9;&#9;C1137,639.2,1136.8,639.2,1136.7,639.2z M1112.9,415.1l26.6,217.3l162.2-19.8l-26.6-217.3L1112.9,415.1z" style="fill: rgb(35, 31, 32);"/>
			</g>
			<g>
				<path class="st8" d="M1090.1,395.9c0,0,26,212.5,27.8,227c1.8,14.6,18.8,13.1,18.8,13.1l-29.1-237.7L1090.1,395.9z" style="fill: rgb(246, 150, 82);"/>
				<path class="st2" d="M1135.1,639.3c-7.3,0-18.8-3.2-20.4-16c-1.8-14.6-27.8-227-27.8-227c-0.1-1,0.2-2,0.9-2.7s1.7-1,2.7-0.9&#10;&#9;&#9;&#9;&#9;&#9;l17.5,2.5c1.4,0.2,2.6,1.3,2.7,2.8l29.1,237.7c0.1,0.9-0.1,1.7-0.7,2.4c-0.5,0.7-1.3,1.1-2.2,1.2&#10;&#9;&#9;&#9;&#9;&#9;C1136.4,639.3,1135.7,639.3,1135.1,639.3z M1093.8,399.7c3.6,29.7,25.6,209.6,27.3,222.9c1,7.9,7.8,9.8,12,10.2l-28.3-231.6&#10;&#9;&#9;&#9;&#9;&#9;L1093.8,399.7z" style="fill: rgb(35, 31, 32);"/>
			</g>
			<g>
				<path class="st10" d="M1109.4,412.3c-22.6,2.8-27.2-34.2-4.5-37l168.5-20.6c-18.1,2.2-13.6,39.2,4.5,37L1109.4,412.3z" style="fill: rgb(221, 105, 102);"/>
				<path class="st2" d="M1106.9,415.7c-5.1,0-9.6-1.8-13.3-5.3c-3.7-3.5-6.1-8.5-6.8-14.1c-0.7-5.6,0.4-11,3.2-15.3&#10;&#9;&#9;&#9;&#9;&#9;c3.2-5,8.1-8,14.3-8.8l168.5-20.6l0,0c1.8-0.2,3.4,1,3.6,2.8c0.2,1.8-1,3.4-2.8,3.6l0,0c-3.3,0.4-5.8,2.4-7.3,5.9&#10;&#9;&#9;&#9;&#9;&#9;c-2.6,6.1-1.5,15.4,2.5,20.7c2.3,3.1,5.2,4.4,8.5,4l0,0c1.8-0.2,3.4,1,3.6,2.8c0.2,1.8-1,3.4-2.8,3.6c0,0,0,0,0,0l-168.5,20.6&#10;&#9;&#9;&#9;&#9;&#9;l-0.4-3.2l0.4,3.2C1108.8,415.6,1107.9,415.7,1106.9,415.7z M1261.5,359.4l-156.3,19.1c-9.5,1.2-12.8,9.6-11.9,17&#10;&#9;&#9;&#9;&#9;&#9;c0.5,4.1,2.3,7.8,4.8,10.3c2.9,2.8,6.5,3.9,10.8,3.4l156.3-19.1c-0.5-0.5-0.9-1.1-1.4-1.6c-5.4-7.2-6.8-18.8-3.3-27&#10;&#9;&#9;&#9;&#9;&#9;C1260.8,360.7,1261.2,360,1261.5,359.4z" style="fill: rgb(35, 31, 32);"/>
			</g>
			<g>
				<path class="st6" d="M1236.9,474.2l-67.9,8.3c-6.7,0.8-12.8-4-13.6-10.7l-2.2-18.2c-0.8-6.7,4-12.8,10.7-13.6l67.9-8.3&#10;&#9;&#9;&#9;&#9;&#9;c6.7-0.8,12.8,4,13.6,10.7l2.2,18.2C1248.4,467.3,1243.6,473.4,1236.9,474.2z" style="fill: rgb(255, 218, 117);"/>
				<path class="st2" d="M1166.6,485.9c-7.2,0-13.4-5.4-14.3-12.7l-2.5-20.2c-0.5-3.8,0.6-7.6,3-10.6c2.4-3,5.8-5,9.6-5.4l69.9-8.5&#10;&#9;&#9;&#9;&#9;&#9;c7.9-1,15.1,4.7,16.1,12.6l2.5,20.2c1,7.9-4.7,15.1-12.6,16.1l-69.9,8.5C1167.8,485.9,1167.2,485.9,1166.6,485.9z M1234.1,434.7&#10;&#9;&#9;&#9;&#9;&#9;c-0.3,0-0.6,0-1,0.1l-69.9,8.5c-2.1,0.3-4,1.3-5.3,3c-1.3,1.7-1.9,3.8-1.6,5.9l2.5,20.2c0.5,4.4,4.5,7.5,8.9,7l69.9-8.5l0,0&#10;&#9;&#9;&#9;&#9;&#9;c4.4-0.5,7.5-4.5,7-8.9l-2.5-20.2C1241.5,437.7,1238.1,434.7,1234.1,434.7z" style="fill: rgb(35, 31, 32);"/>
			</g>
			<g>
				<path class="st6" d="M1176.6,538c-1.6,0-3-1.2-3.2-2.8c-0.2-1.8,1-3.4,2.8-3.6l65.5-8c1.8-0.2,3.4,1,3.6,2.8&#10;&#9;&#9;&#9;&#9;&#9;c0.2,1.8-1,3.4-2.8,3.6l-65.5,8C1176.9,538,1176.8,538,1176.6,538z" style="fill: rgb(255, 218, 117);"/>
			</g>
			<g>
				<path class="st6" d="M1179.1,558.3c-1.6,0-3-1.2-3.2-2.8c-0.2-1.8,1-3.4,2.8-3.6l65.5-8c1.7-0.2,3.4,1,3.6,2.8&#10;&#9;&#9;&#9;&#9;&#9;c0.2,1.8-1,3.4-2.8,3.6l-65.5,8C1179.4,558.3,1179.2,558.3,1179.1,558.3z" style="fill: rgb(255, 218, 117);"/>
			</g>
			<g>
				<path class="st6" d="M1199.2,576.4c-1.6,0-3-1.2-3.2-2.8c-0.2-1.8,1-3.4,2.8-3.6l30.3-3.7c1.8-0.2,3.4,1,3.6,2.8&#10;&#9;&#9;&#9;&#9;&#9;c0.2,1.8-1,3.4-2.8,3.6l-30.3,3.7C1199.4,576.4,1199.3,576.4,1199.2,576.4z" style="fill: rgb(255, 218, 117);"/>
			</g>
		</g>
		<g>
			<path class="st9" d="M1148,388.8c-1.6,0-3-1.2-3.2-2.8c-0.2-1.8,1-3.4,2.8-3.6l3.1-0.4c1.7-0.2,3.4,1,3.6,2.8&#10;&#9;&#9;&#9;&#9;c0.2,1.8-1,3.4-2.8,3.6l-3.1,0.4C1148.3,388.8,1148.1,388.8,1148,388.8z" style="fill: rgb(252, 165, 102);"/>
		</g>
		<g>
			<path class="st9" d="M1166.9,386.4c-1.6,0-3-1.2-3.2-2.8c-0.2-1.8,1-3.4,2.8-3.6l65.5-8.4c1.8-0.2,3.4,1,3.6,2.8&#10;&#9;&#9;&#9;&#9;c0.2,1.8-1,3.4-2.8,3.6l-65.5,8.4C1167.2,386.4,1167.1,386.4,1166.9,386.4z" style="fill: rgb(252, 165, 102);"/>
		</g>
		<g>
			<g>
				<path class="st10" d="M1290.6,197.5l-71.7,77.8l4.1-22.4l68.6-74.1c3.5-4.1,4.7-9.3,3.8-14.1l1.6,5.4&#10;&#9;&#9;&#9;&#9;&#9;C1299.8,179.7,1297.4,190.1,1290.6,197.5z" style="fill: rgb(221, 105, 102);"/>
				<path class="st2" d="M1218.9,278.5c-0.5,0-1-0.1-1.4-0.3c-1.3-0.6-2-2-1.7-3.5l4.1-22.4c0.1-0.6,0.4-1.2,0.8-1.6l68.5-74&#10;&#9;&#9;&#9;&#9;&#9;c2.7-3.2,3.8-7.4,3.1-11.5c-0.3-1.7,0.8-3.3,2.4-3.7c1.7-0.4,3.3,0.6,3.8,2.2l1.6,5.4c3.1,10.7,0.4,22.4-7.1,30.6l0,0&#10;&#9;&#9;&#9;&#9;&#9;l-71.7,77.8C1220.6,278.1,1219.7,278.5,1218.9,278.5z M1226,254.4l-2,10.6l64.2-69.6c4-4.3,6.3-9.8,6.7-15.5&#10;&#9;&#9;&#9;&#9;&#9;c-0.3,0.4-0.6,0.7-0.8,1.1c0,0-0.1,0.1-0.1,0.1L1226,254.4z M1290.6,197.5L1290.6,197.5L1290.6,197.5z" style="fill: rgb(35, 31, 32);"/>
			</g>
			<g>
				<path class="st8" d="M1172.8,256.2l-0.2,0.4l-129.3-75.7c-3.7-2.2-4.9-6.9-2.8-10.6l0.2-0.4l129.3,75.7&#10;&#9;&#9;&#9;&#9;&#9;C1173.8,247.7,1175,252.5,1172.8,256.2z" style="fill: rgb(246, 150, 82);"/>
				<path class="st2" d="M1172.6,259.8c-0.6,0-1.1-0.1-1.6-0.4l-129.3-75.7c-2.5-1.5-4.3-3.9-5.1-6.7c-0.7-2.8-0.3-5.8,1.1-8.3&#10;&#9;&#9;&#9;&#9;&#9;l0.2-0.4c0.9-1.5,2.9-2,4.4-1.1l129.3,75.7c5.2,3.1,7,9.8,3.9,15c0,0,0,0,0,0l-0.2,0.4C1174.8,259.2,1173.7,259.8,1172.6,259.8z&#10;&#9;&#9;&#9;&#9;&#9; M1172.8,256.2L1172.8,256.2L1172.8,256.2z M1042.7,174.7c0,0.2,0.1,0.4,0.1,0.6c0.3,1.2,1,2.2,2.1,2.8l125.7,73.6&#10;&#9;&#9;&#9;&#9;&#9;c-0.2-1.4-0.9-2.6-2.2-3.4L1042.7,174.7z" style="fill: rgb(35, 31, 32);"/>
			</g>
			<g>
				<path class="st10" d="M1172.8,256.2l-6.7,11.4c-1.1,1.8-2.8,3.1-4.7,3.6c-1.9,0.5-4,0.3-5.9-0.8l-165.2-96.7&#10;&#9;&#9;&#9;&#9;&#9;c-3.7-2.2-4.9-6.9-2.8-10.6l6.7-11.4c2.2-3.7,6.9-4.9,10.6-2.8l165.2,96.7C1173.8,247.7,1175,252.5,1172.8,256.2z" style="fill: rgb(221, 105, 102);"/>
				<path class="st2" d="M1159.5,274.6c-1.9,0-3.8-0.5-5.5-1.5l-165.2-96.7c-5.2-3.1-7-9.8-3.9-15l6.7-11.4c3.1-5.2,9.8-7,15-3.9&#10;&#9;&#9;&#9;&#9;&#9;l165.2,96.7c5.2,3.1,7,9.8,3.9,15l-6.7,11.4c-1.5,2.5-3.8,4.3-6.7,5.1C1161.4,274.5,1160.4,274.6,1159.5,274.6z M1001,151&#10;&#9;&#9;&#9;&#9;&#9;c-1.6,0-3.1,0.8-3.9,2.2l-6.7,11.4c-1.3,2.2-0.5,4.9,1.6,6.2l165.2,96.7c1,0.6,2.3,0.8,3.4,0.5c1.2-0.3,2.1-1,2.8-2.1l6.7-11.4&#10;&#9;&#9;&#9;&#9;&#9;l2.8,1.6l-2.8-1.6c1.3-2.2,0.5-4.9-1.6-6.2l-165.2-96.7C1002.5,151.2,1001.7,151,1001,151z" style="fill: rgb(35, 31, 32);"/>
			</g>
			<g>
				<path class="st2" d="M1161.5,274.3c-0.1,0-0.3,0-0.4,0l-5.9-0.8c-1.8-0.2-3-1.9-2.7-3.6c0.2-1.8,1.9-3,3.6-2.7l5.9,0.8&#10;&#9;&#9;&#9;&#9;&#9;c1.8,0.2,3,1.9,2.7,3.6C1164.4,273.2,1163.1,274.3,1161.5,274.3z" style="fill: rgb(35, 31, 32);"/>
			</g>
			<g>
				<path class="st8" d="M1225.8,263.5l-6.6,11.3c-0.7,1.1-1.6,2-2.6,2.7c-2.4,1.4-5.4,1.6-8,0.1l-47.1-6.5c1.9-0.5,3.6-1.7,4.7-3.6&#10;&#9;&#9;&#9;&#9;&#9;l6.7-11.4c2.2-3.7,0.9-8.4-2.8-10.6l-165.2-96.7l47.1,6.5l5.9,0.8l165.2,96.7C1226.7,255,1227.9,259.8,1225.8,263.5z" style="fill: rgb(246, 150, 82);"/>
				<path class="st2" d="M1212.4,281.9c-1.7,0-3.4-0.4-4.9-1.2l-46.5-6.4c-1.5-0.2-2.7-1.5-2.8-3c-0.1-1.5,0.9-2.9,2.4-3.3&#10;&#9;&#9;&#9;&#9;&#9;c1.2-0.3,2.1-1,2.8-2.1l6.7-11.4c1.3-2.2,0.5-4.9-1.6-6.2l-165.2-96.7c-1.3-0.8-1.9-2.4-1.4-3.8c0.5-1.4,1.9-2.3,3.5-2.1&#10;&#9;&#9;&#9;&#9;&#9;l52.9,7.3c0.4,0.1,0.8,0.2,1.2,0.4l165.2,96.7c5.2,3.1,7,9.8,3.9,15l-6.6,11.3c-0.9,1.6-2.2,2.9-3.7,3.8&#10;&#9;&#9;&#9;&#9;&#9;C1216.4,281.3,1214.4,281.9,1212.4,281.9z M1169.1,268.9l39.9,5.5c0.4,0.1,0.8,0.2,1.2,0.4c1.4,0.8,3.2,0.8,4.7-0.1&#10;&#9;&#9;&#9;&#9;&#9;c0.6-0.4,1.2-0.9,1.5-1.6l6.6-11.3c0.6-1,0.8-2.3,0.5-3.4c-0.3-1.2-1-2.2-2.1-2.8l-164.6-96.4l-36.3-5l151.3,88.6&#10;&#9;&#9;&#9;&#9;&#9;c5.2,3.1,7,9.8,3.9,15L1169.1,268.9z" style="fill: rgb(35, 31, 32);"/>
			</g>
			<g>
				<path d="M 1216.5 277.5 L 1223 268.20001220703125 L 1219.4000244140625 274.3999938964844 Z" class="st10" style="fill: rgb(221, 105, 102);"/>
				<path class="st2" d="M1216.5,280.7c-0.7,0-1.4-0.2-2-0.7c-1.3-1.1-1.6-3-0.6-4.3l6.5-9.3c1-1.4,2.9-1.8,4.4-0.9&#10;&#9;&#9;&#9;&#9;&#9;c1.4,0.9,1.9,2.8,1,4.3l-3.6,6.2c-0.1,0.2-0.3,0.4-0.4,0.6l-2.9,3.1C1218.2,280.4,1217.4,280.7,1216.5,280.7z" style="fill: rgb(35, 31, 32);"/>
			</g>
			<g>
				<path class="st10" d="M1291.6,178.8l-67.8,74.5l-166-97.2l68.4-81c5.4-6.4,14.7-8,22-3.8l138.9,81.3c4.6,2.7,7.5,7.2,8.3,12&#10;&#9;&#9;&#9;&#9;&#9;C1296.3,169.5,1295.1,174.7,1291.6,178.8z" style="fill: rgb(221, 105, 102);"/>
				<path class="st2" d="M1223.8,256.5c-0.6,0-1.1-0.1-1.6-0.4l-166-97.2c-0.8-0.5-1.4-1.3-1.5-2.2c-0.2-0.9,0.1-1.9,0.7-2.6&#10;&#9;&#9;&#9;&#9;&#9;l68.4-81c6.5-7.6,17.4-9.5,26-4.5l138.9,81.3c5.2,3.1,8.8,8.2,9.8,14.2c1,6-0.6,12.1-4.5,16.8c0,0-0.1,0.1-0.1,0.1l-67.8,74.5&#10;&#9;&#9;&#9;&#9;&#9;C1225.5,256.2,1224.7,256.5,1223.8,256.5z M1062.7,155.3l160.4,93.9l66-72.6c2.7-3.2,3.8-7.4,3.1-11.5c-0.7-4.1-3.2-7.6-6.8-9.7&#10;&#9;&#9;&#9;&#9;&#9;l-138.9-81.3c-5.9-3.5-13.5-2.2-17.9,3.1L1062.7,155.3z M1291.6,178.8L1291.6,178.8L1291.6,178.8z" style="fill: rgb(35, 31, 32);"/>
			</g>
			<g>
				<path class="st6" d="M1097.3,142.8l38.5-45.6c2.6-3.1,7.1-3.9,10.7-1.8l116.7,68.3c4.5,2.6,5.5,8.7,2.2,12.7l-38.5,45.6&#10;&#9;&#9;&#9;&#9;&#9;c-2.6,3.1-7.1,3.9-10.7,1.8l-116.7-68.3C1095,152.9,1093.9,146.8,1097.3,142.8z" style="fill: rgb(255, 218, 117);"/>
				<path class="st2" d="M1220.4,228.2c-2,0-4-0.5-5.9-1.6l-116.7-68.3c-3-1.7-5-4.7-5.6-8.1c-0.6-3.4,0.4-6.8,2.6-9.5l38.5-45.6&#10;&#9;&#9;&#9;&#9;&#9;c3.7-4.3,9.9-5.4,14.7-2.5l116.7,68.3c3,1.7,5,4.7,5.6,8.1c0.6,3.4-0.4,6.8-2.6,9.5l-38.5,45.6&#10;&#9;&#9;&#9;&#9;&#9;C1227,226.8,1223.7,228.2,1220.4,228.2z M1142.3,97.4c-1.5,0-3,0.6-4,1.8l-38.5,45.6l0,0c-1,1.2-1.4,2.7-1.2,4.2&#10;&#9;&#9;&#9;&#9;&#9;c0.3,1.5,1.2,2.8,2.5,3.6l116.7,68.3c2.2,1.3,5,0.8,6.6-1.1l38.5-45.6c1-1.2,1.4-2.7,1.2-4.2c-0.3-1.5-1.2-2.8-2.5-3.6&#10;&#9;&#9;&#9;&#9;&#9;l-116.7-68.3C1144.1,97.7,1143.2,97.4,1142.3,97.4z M1097.3,142.8L1097.3,142.8L1097.3,142.8z" style="fill: rgb(35, 31, 32);"/>
			</g>
			<g>
				<path class="st11" d="M1231.7,192.3c-0.7,0-1.5-0.2-2.1-0.8c-1.4-1.1-1.5-3.2-0.4-4.5l2.5-2.9c1.1-1.4,3.2-1.5,4.5-0.4&#10;&#9;&#9;&#9;&#9;&#9;c1.4,1.1,1.5,3.2,0.4,4.5l-2.5,2.9C1233.5,191.9,1232.6,192.3,1231.7,192.3z" style="fill: rgb(255, 243, 209);"/>
			</g>
			<g>
				<path class="st11" d="M1241.6,180.6c-0.7,0-1.5-0.2-2.1-0.8c-1.4-1.1-1.5-3.2-0.4-4.5c0.7-0.9,0.7-1.8,0.6-2.3&#10;&#9;&#9;&#9;&#9;&#9;c-0.1-0.5-0.4-1.4-1.4-2l-29.4-17.2c-1.5-0.9-2-2.9-1.1-4.4c0.9-1.5,2.9-2,4.4-1.1l29.4,17.2c2.4,1.4,4,3.7,4.5,6.4&#10;&#9;&#9;&#9;&#9;&#9;c0.5,2.7-0.3,5.5-2.1,7.6C1243.4,180.2,1242.5,180.6,1241.6,180.6z" style="fill: rgb(255, 243, 209);"/>
			</g>
			<g>
				<path class="st2" d="M1225.9,259.1c-0.2,0-0.4,0-0.6-0.1l-31.4-6.1c-1.7-0.3-2.9-2-2.5-3.8c0.3-1.7,2-2.9,3.8-2.5l31.4,6.1&#10;&#9;&#9;&#9;&#9;&#9;c1.7,0.3,2.9,2,2.5,3.8C1228.8,258,1227.4,259.1,1225.9,259.1z" style="fill: rgb(35, 31, 32);"/>
			</g>
		</g>
	</g>
</g></g></svg>